<svg xmlns="http://www.w3.org/2000/svg" viewBox="0 0 919.03 160" width="919.03" height="160" role="img" aria-label="faithful-transpile lockup"><title>faithful-transpile lockup</title><defs></defs><g transform="scale(0.31)"><desc>A ring drawn around a bright core, with the document element inside the ring.</desc><defs><radialGradient id="mk-faithful-transpile-fl0-halo" r="22%"><stop offset="0" stop-color="#c4621d" stop-opacity="0.18"/><stop offset="0.35" stop-color="#c4621d" stop-opacity="0.05"/><stop offset="1" stop-color="#c4621d" stop-opacity="0"/></radialGradient><radialGradient id="mk-faithful-transpile-fl0-core"><stop offset="0" stop-color="#fffdf7"/><stop offset="0.45" stop-color="#fffdf7" stop-opacity="0.96"/><stop offset="0.72" stop-color="#e7a653" stop-opacity="0.3"/><stop offset="1" stop-color="#c4621d" stop-opacity="0"/></radialGradient></defs><circle cx="256" cy="256" r="196" fill="none" stroke="#1a1712" stroke-width="18" opacity="1"/><line x1="114.58" y1="284.28" x2="284.28" y2="114.58" stroke="#1a1712" stroke-width="10.8" stroke-opacity="1" stroke-linecap="round"/><line x1="149.93" y1="319.64" x2="291.36" y2="178.22" stroke="#1a1712" stroke-width="10.8" stroke-opacity="1" stroke-linecap="round"/><line x1="185.29" y1="354.99" x2="354.99" y2="185.29" stroke="#1a1712" stroke-width="10.8" stroke-opacity="1" stroke-linecap="round"/><line x1="220.64" y1="390.35" x2="362.07" y2="248.93" stroke="#1a1712" stroke-width="10.8" stroke-opacity="1" stroke-linecap="round"/><line x1="256" y1="425.71" x2="425.71" y2="256" stroke="#1a1712" stroke-width="10.8" stroke-opacity="1" stroke-linecap="round"/><circle cx="256" cy="256" r="34" fill="#1a1712" opacity="1"/></g><path fill="#1a1712" d="M218.32 115.71V75.34H208.99V66.81H218.42V61.25Q218.42 55.2 220.4 51.78Q222.38 48.36 225.71 47.02Q229.03 45.68 233.1 45.68Q235.97 45.68 238.21 46.22Q240.44 46.77 242.42 47.76L238.85 56.09Q237.86 55.5 236.72 55.15Q235.58 54.8 234.29 54.8Q231.61 54.8 230.47 56.54Q229.33 58.28 229.33 61.25V66.81H240.04V75.34H229.33V115.71ZM277.64 115.71 276.84 107.48V84.86Q276.84 80.1 273.97 77.67Q271.09 75.24 265.93 75.24Q261.96 75.24 258.15 76.78Q254.33 78.31 251.15 81.49L245 74.25Q249.76 69.78 255.12 67.85Q260.48 65.91 266.83 65.91Q276.75 65.91 282.25 70.92Q287.76 75.93 287.76 84.86V115.71ZM262.46 116.6Q257 116.6 252.79 114.62Q248.57 112.64 246.24 109.07Q243.91 105.49 243.91 100.73Q243.91 96.67 245.65 93.69Q247.38 90.71 250.16 89.03Q252.54 87.54 255.72 86.89Q258.89 86.25 262.36 86.25H277.74V94.48H263.95Q262.16 94.48 260.38 94.83Q258.59 95.18 257.2 96.07Q256.21 96.86 255.57 98.05Q254.92 99.24 254.92 100.83Q254.92 104.01 257.35 105.84Q259.78 107.68 263.85 107.68Q267.42 107.68 270.35 106.09Q273.27 104.5 275.06 101.72Q276.84 98.95 276.84 95.48L280.22 100.93Q279.03 106.09 276.45 109.61Q273.87 113.13 270.3 114.87Q266.73 116.6 262.46 116.6ZM297.48 115.71V66.81H308.49V115.71ZM296.98 58.77V46.57H308.99V58.77ZM336.56 116.6Q332.89 116.6 329.67 115.17Q326.44 113.73 324.56 110.5Q322.68 107.28 322.68 102.02V54.9L333.79 48.75V98.95Q333.79 103.11 335.03 105.35Q336.27 107.58 339.54 107.58Q340.53 107.58 341.87 107.33Q343.21 107.08 344.7 106.68V115.22Q342.71 115.91 340.68 116.26Q338.65 116.6 336.56 116.6ZM313.35 75.34V66.81H344.7V75.34ZM352.04 115.71V46.57H363.05V77.62L361.07 78.12Q362.36 73.85 364.88 71.17Q367.41 68.49 370.69 67.2Q373.96 65.91 377.63 65.91Q385.87 65.91 390.48 70.63Q395.09 75.34 395.09 84.07V115.71H384.08V88.13Q384.08 81.59 381.7 78.51Q379.32 75.44 374.36 75.44Q368.8 75.44 365.93 79.4Q363.05 83.37 363.05 91.9V115.71ZM407.69 115.71V75.34H398.36V66.81H407.79V61.25Q407.79 55.2 409.77 51.78Q411.76 48.36 415.08 47.02Q418.4 45.68 422.47 45.68Q425.35 45.68 427.58 46.22Q429.81 46.77 431.8 47.76L428.22 56.09Q427.23 55.5 426.09 55.15Q424.95 54.8 423.66 54.8Q420.98 54.8 419.84 56.54Q418.7 58.28 418.7 61.25V66.81H429.41V75.34H418.7V115.71ZM452.43 116.6Q446.68 116.6 442.76 114.32Q438.84 112.04 436.85 107.78Q434.87 103.51 434.87 97.46V66.81H445.88V94.48Q445.88 98.35 446.82 101.18Q447.77 104.01 449.9 105.49Q452.03 106.98 455.7 106.98Q459.97 106.98 462.4 104.75Q464.83 102.52 465.87 98.2Q466.91 93.89 466.91 87.84V66.81H477.92V115.71H466.91V105.2L468.8 105.89Q466.52 111.45 462.2 114.03Q457.88 116.6 452.43 116.6ZM499.25 116.6Q494.49 116.6 491.32 113.68Q488.14 110.75 488.14 104.3V46.57H499.15V102.12Q499.15 104.4 500.19 105.44Q501.24 106.49 502.92 106.49Q503.81 106.49 504.76 106.29Q505.7 106.09 506.69 105.79V115.12Q504.81 115.91 502.82 116.26Q500.84 116.6 499.25 116.6ZM510.56 90.22V82.08H535.16V90.22ZM560.76 116.6Q557.08 116.6 553.86 115.17Q550.64 113.73 548.75 110.5Q546.87 107.28 546.87 102.02V54.9L557.98 48.75V98.95Q557.98 103.11 559.22 105.35Q560.46 107.58 563.73 107.58Q564.72 107.58 566.06 107.33Q567.4 107.08 568.89 106.68V115.22Q566.91 115.91 564.87 116.26Q562.84 116.6 560.76 116.6ZM537.54 75.34V66.81H568.89V75.34ZM576.23 115.71V66.81H587.34V80L585.26 80.3Q585.75 76.03 588.13 72.81Q590.52 69.58 593.94 67.75Q597.36 65.91 600.73 65.91Q603.11 65.91 605.3 66.51Q607.48 67.1 609.86 68.49L604.5 78.41Q603.41 77.72 601.68 77.27Q599.94 76.83 598.35 76.83Q596.27 76.83 594.24 77.62Q592.2 78.41 590.61 80.05Q589.03 81.69 588.23 84.27Q587.74 85.65 587.49 87.89Q587.24 90.12 587.24 94.09V115.71ZM645.87 115.71 645.08 107.48V84.86Q645.08 80.1 642.2 77.67Q639.32 75.24 634.16 75.24Q630.2 75.24 626.38 76.78Q622.56 78.31 619.38 81.49L613.23 74.25Q617.99 69.78 623.35 67.85Q628.71 65.91 635.06 65.91Q644.98 65.91 650.48 70.92Q655.99 75.93 655.99 84.86V115.71ZM630.69 116.6Q625.24 116.6 621.02 114.62Q616.8 112.64 614.47 109.07Q612.14 105.49 612.14 100.73Q612.14 96.67 613.88 93.69Q615.61 90.71 618.39 89.03Q620.77 87.54 623.95 86.89Q627.12 86.25 630.59 86.25H645.97V94.48H632.18Q630.39 94.48 628.61 94.83Q626.82 95.18 625.43 96.07Q624.44 96.86 623.8 98.05Q623.15 99.24 623.15 100.83Q623.15 104.01 625.58 105.84Q628.01 107.68 632.08 107.68Q635.65 107.68 638.58 106.09Q641.5 104.5 643.29 101.72Q645.08 98.95 645.08 95.48L648.45 100.93Q647.26 106.09 644.68 109.61Q642.1 113.13 638.53 114.87Q634.96 116.6 630.69 116.6ZM665.81 115.71V66.81H676.82V77.62L674.84 78.12Q676.12 73.85 678.6 71.17Q681.08 68.49 684.41 67.2Q687.73 65.91 691.4 65.91Q699.64 65.91 704.25 70.63Q708.86 75.34 708.86 84.07V115.71H697.85V88.13Q697.85 81.59 695.47 78.51Q693.09 75.44 688.13 75.44Q684.46 75.44 681.93 77.17Q679.4 78.91 678.11 82.58Q676.82 86.25 676.82 91.9V115.71ZM735.45 116.6Q730.19 116.6 726.12 115.07Q722.05 113.53 719.28 111.15Q716.5 108.77 714.71 106.39L722.25 99.84Q724.14 102.92 727.46 105.3Q730.78 107.68 735.55 107.68Q739.51 107.68 741.84 105.99Q744.18 104.3 744.18 101.82Q744.18 99.64 742.69 98.4Q741.2 97.16 738.82 96.27Q736.44 95.38 733.56 94.68Q730.78 93.99 727.91 92.95Q725.03 91.9 722.6 90.32Q720.17 88.73 718.68 86.25Q717.19 83.77 717.19 80.1Q717.19 73.65 722.15 69.78Q727.11 65.91 735.15 65.91Q740.9 65.91 745.66 68.2Q750.43 70.48 753.1 75.04L746.26 80.3Q744.28 77.32 741.3 75.83Q738.32 74.35 734.85 74.35Q731.68 74.35 729.54 75.64Q727.41 76.92 727.41 79.01Q727.41 80.6 728.4 81.59Q729.4 82.58 731.48 83.37Q733.56 84.17 736.74 84.96Q739.71 85.65 742.89 86.65Q746.06 87.64 748.79 89.28Q751.52 90.91 753.25 93.64Q754.99 96.37 754.99 100.63Q754.99 105.4 752.56 109.02Q750.13 112.64 745.71 114.62Q741.3 116.6 735.45 116.6ZM763.02 135.95V66.81H773.94V80.4L771.16 80.5Q772.45 75.14 774.98 71.96Q777.51 68.79 781.03 67.35Q784.55 65.91 788.52 65.91Q795.07 65.91 799.83 69.24Q804.59 72.56 807.22 78.31Q809.85 84.07 809.85 91.31Q809.85 99.15 806.97 104.85Q804.09 110.55 799.28 113.58Q794.47 116.6 788.52 116.6Q784.35 116.6 780.83 115.02Q777.31 113.43 774.88 110.26Q772.45 107.08 771.46 102.52L773.94 102.02V135.95ZM785.84 106.59Q789.71 106.59 792.64 104.7Q795.56 102.82 797.15 99.34Q798.74 95.87 798.74 91.31Q798.74 86.75 797.15 83.27Q795.56 79.8 792.64 77.92Q789.71 76.03 785.84 76.03Q781.97 76.03 779.04 77.92Q776.12 79.8 774.53 83.27Q772.94 86.75 772.94 91.31Q772.94 95.87 774.53 99.29Q776.12 102.72 779.04 104.65Q781.97 106.59 785.84 106.59ZM817.88 115.71V66.81H828.89V115.71ZM817.39 58.77V46.57H829.39V58.77ZM850.02 116.6Q845.26 116.6 842.09 113.68Q838.91 110.75 838.91 104.3V46.57H849.92V102.12Q849.92 104.4 850.96 105.44Q852.01 106.49 853.69 106.49Q854.59 106.49 855.53 106.29Q856.47 106.09 857.46 105.79V115.12Q855.58 115.91 853.59 116.26Q851.61 116.6 850.02 116.6ZM885.24 116.6Q879.09 116.6 874.57 114.62Q870.06 112.64 867.18 109.07Q864.31 105.49 862.92 100.98Q861.53 96.47 861.53 91.61Q861.53 86.75 862.87 82.13Q864.21 77.52 866.99 73.85Q869.76 70.18 874.13 68.05Q878.49 65.91 884.44 65.91Q890.1 65.91 894.32 67.85Q898.53 69.78 901.31 73.2Q904.09 76.63 905.43 80.99Q906.76 85.36 906.76 90.32Q906.76 91.01 906.72 92.3Q906.67 93.59 906.47 94.88H872.54Q872.94 100.73 876.51 103.81Q880.08 106.88 885.64 106.88Q889.7 106.88 893.08 105.59Q896.45 104.3 899.23 101.53L905.28 108.87Q902.2 111.64 899.13 113.33Q896.05 115.02 892.73 115.81Q889.4 116.6 885.24 116.6ZM895.95 89.32Q896.15 88.53 896.2 87.74Q896.25 86.94 896.25 86.15Q896.25 83.97 895.51 81.98Q894.76 80 893.27 78.46Q891.79 76.92 889.6 75.98Q887.42 75.04 884.64 75.04Q880.77 75.04 878.15 76.73Q875.52 78.41 874.08 81.04Q872.64 83.67 872.34 86.75H899.52Z"/></svg>
