<svg xmlns="http://www.w3.org/2000/svg" viewBox="0 0 1280 480" width="1280" height="480" role="img" aria-label="faithful-transpile: Working paper and experiments on faithfulness across minds. A fan of ruled sheets drawn in fine lines, the top sheet lit by a bright core."><title>faithful-transpile: Working paper and experiments on faithfulness across minds.</title><desc>A fan of ruled sheets drawn in fine lines, the top sheet lit by a bright core.</desc><defs><radialGradient id="ra-faithful-transpile-hl-halo" r="22%"><stop offset="0" stop-color="#c4621d" stop-opacity="0.18"/><stop offset="0.35" stop-color="#c4621d" stop-opacity="0.05"/><stop offset="1" stop-color="#c4621d" stop-opacity="0"/></radialGradient><radialGradient id="ra-faithful-transpile-hl-core"><stop offset="0" stop-color="#fffdf7"/><stop offset="0.45" stop-color="#fffdf7" stop-opacity="0.96"/><stop offset="0.72" stop-color="#e7a653" stop-opacity="0.3"/><stop offset="1" stop-color="#c4621d" stop-opacity="0"/></radialGradient><linearGradient id="ra-faithful-transpile-hl-veil" x1="0" y1="0" x2="1" y2="0"><stop offset="0.41" stop-color="#f1ece1" stop-opacity="0"/><stop offset="0.55" stop-color="#f1ece1" stop-opacity="0.94"/></linearGradient></defs><rect width="1280" height="480" fill="#f1ece1"/><polygon points="224.16,141.58 370.67,107.24 415.84,300.02 269.33,334.36" fill="#f1ece1" stroke="#1a1712" stroke-width="0.71" stroke-opacity="0.7"/><polygon points="233.89,131.10 383.37,113.81 406.11,310.50 256.63,327.79" fill="#f1ece1" stroke="#1a1712" stroke-width="0.71" stroke-opacity="0.7"/><polygon points="244.76,121.80 395.24,121.80 395.24,319.80 244.76,319.80" fill="#f1ece1" stroke="#1a1712" stroke-width="0.71" stroke-opacity="0.7"/><line x1="256.8" y1="133.68" x2="350.48" y2="133.68" stroke="#1a1712" stroke-width="0.63" stroke-opacity="0.55" stroke-linecap="round" stroke-dasharray="7.92 2.3760000000000003"/><line x1="256.8" y1="143.58" x2="337.06" y2="143.58" stroke="#1a1712" stroke-width="0.63" stroke-opacity="0.55" stroke-linecap="round" stroke-dasharray="7.92 2.3760000000000003"/><line x1="256.8" y1="153.48" x2="342.94" y2="153.48" stroke="#1a1712" stroke-width="0.63" stroke-opacity="0.55" stroke-linecap="round" stroke-dasharray="7.92 2.3760000000000003"/><line x1="256.8" y1="163.38" x2="335.91" y2="163.38" stroke="#1a1712" stroke-width="0.63" stroke-opacity="0.55" stroke-linecap="round" stroke-dasharray="7.92 2.3760000000000003"/><line x1="256.8" y1="173.28" x2="351.83" y2="173.28" stroke="#1a1712" stroke-width="0.63" stroke-opacity="0.55" stroke-linecap="round" stroke-dasharray="7.92 2.3760000000000003"/><line x1="256.8" y1="183.18" x2="336.95" y2="183.18" stroke="#1a1712" stroke-width="0.63" stroke-opacity="0.55" stroke-linecap="round" stroke-dasharray="7.92 2.3760000000000003"/><line x1="256.8" y1="193.08" x2="330.63" y2="193.08" stroke="#1a1712" stroke-width="0.63" stroke-opacity="0.55" stroke-linecap="round" stroke-dasharray="7.92 2.3760000000000003"/><circle cx="320" cy="220.8" r="27.72" fill="url(#ra-faithful-transpile-hl-halo)"/><circle cx="320" cy="220.8" r="17.74" fill="url(#ra-faithful-transpile-hl-core)"/><rect width="1280" height="480" fill="url(#ra-faithful-transpile-hl-veil)"/><path fill="#1a1712" d="M686.1 132.88V102.76H679.14V96.4H686.17V92.25Q686.17 87.74 687.65 85.19Q689.13 82.63 691.61 81.63Q694.09 80.64 697.12 80.64Q699.27 80.64 700.93 81.04Q702.6 81.45 704.08 82.19L701.41 88.41Q700.67 87.96 699.82 87.7Q698.97 87.44 698.01 87.44Q696.01 87.44 695.16 88.74Q694.31 90.03 694.31 92.25V96.4H702.3V102.76H694.31V132.88ZM730.35 132.88 729.76 126.74V109.87Q729.76 106.31 727.61 104.5Q725.46 102.69 721.62 102.69Q718.66 102.69 715.81 103.83Q712.96 104.98 710.59 107.35L706 101.95Q709.55 98.62 713.55 97.17Q717.55 95.73 722.28 95.73Q729.68 95.73 733.79 99.47Q737.9 103.21 737.9 109.87V132.88ZM719.03 133.55Q714.96 133.55 711.81 132.07Q708.67 130.59 706.93 127.92Q705.19 125.26 705.19 121.71Q705.19 118.67 706.48 116.45Q707.78 114.23 709.85 112.97Q711.63 111.86 713.99 111.38Q716.36 110.9 718.95 110.9H730.42V117.04H720.14Q718.8 117.04 717.47 117.3Q716.14 117.56 715.1 118.23Q714.36 118.82 713.88 119.71Q713.4 120.6 713.4 121.78Q713.4 124.15 715.22 125.52Q717.03 126.89 720.06 126.89Q722.73 126.89 724.91 125.7Q727.09 124.52 728.42 122.45Q729.76 120.37 729.76 117.78L732.27 121.85Q731.38 125.7 729.46 128.33Q727.54 130.96 724.87 132.25Q722.21 133.55 719.03 133.55ZM745.15 132.88V96.4H753.36V132.88ZM744.78 90.4V81.3H753.73V90.4ZM774.3 133.55Q771.57 133.55 769.16 132.47Q766.76 131.4 765.35 129Q763.94 126.59 763.94 122.67V87.52L772.23 82.93V120.37Q772.23 123.48 773.16 125.15Q774.08 126.81 776.52 126.81Q777.26 126.81 778.26 126.63Q779.26 126.44 780.37 126.15V132.51Q778.89 133.03 777.38 133.29Q775.86 133.55 774.3 133.55ZM756.99 102.76V96.4H780.37V102.76ZM785.85 132.88V81.3H794.06V104.46L792.58 104.83Q793.54 101.65 795.43 99.65Q797.32 97.66 799.76 96.69Q802.2 95.73 804.94 95.73Q811.08 95.73 814.52 99.25Q817.96 102.76 817.96 109.27V132.88H809.75V112.31Q809.75 107.42 807.97 105.13Q806.2 102.84 802.5 102.84Q798.35 102.84 796.21 105.8Q794.06 108.76 794.06 115.12V132.88ZM827.36 132.88V102.76H820.41V96.4H827.44V92.25Q827.44 87.74 828.92 85.19Q830.4 82.63 832.88 81.63Q835.35 80.64 838.39 80.64Q840.53 80.64 842.2 81.04Q843.86 81.45 845.34 82.19L842.68 88.41Q841.94 87.96 841.09 87.7Q840.24 87.44 839.28 87.44Q837.28 87.44 836.43 88.74Q835.58 90.03 835.58 92.25V96.4H843.57V102.76H835.58V132.88ZM860.74 133.55Q856.44 133.55 853.52 131.84Q850.6 130.14 849.12 126.96Q847.64 123.78 847.64 119.26V96.4H855.85V117.04Q855.85 119.93 856.56 122.04Q857.26 124.15 858.85 125.26Q860.44 126.37 863.18 126.37Q866.36 126.37 868.17 124.7Q869.99 123.04 870.76 119.82Q871.54 116.6 871.54 112.09V96.4H879.75V132.88H871.54V125.04L872.95 125.55Q871.24 129.7 868.03 131.62Q864.81 133.55 860.74 133.55ZM895.66 133.55Q892.11 133.55 889.74 131.36Q887.38 129.18 887.38 124.37V81.3H895.59V122.74Q895.59 124.44 896.37 125.22Q897.14 126 898.4 126Q899.07 126 899.77 125.85Q900.47 125.7 901.21 125.48V132.44Q899.81 133.03 898.33 133.29Q896.85 133.55 895.66 133.55ZM904.1 113.86V107.79H922.45V113.86ZM941.54 133.55Q938.81 133.55 936.4 132.47Q934 131.4 932.59 129Q931.18 126.59 931.18 122.67V87.52L939.47 82.93V120.37Q939.47 123.48 940.4 125.15Q941.32 126.81 943.76 126.81Q944.5 126.81 945.5 126.63Q946.5 126.44 947.61 126.15V132.51Q946.13 133.03 944.62 133.29Q943.1 133.55 941.54 133.55ZM924.23 102.76V96.4H947.61V102.76ZM953.09 132.88V96.4H961.38V106.24L959.82 106.46Q960.19 103.28 961.97 100.88Q963.74 98.47 966.3 97.1Q968.85 95.73 971.37 95.73Q973.14 95.73 974.77 96.18Q976.4 96.62 978.17 97.66L974.18 105.06Q973.36 104.54 972.07 104.2Q970.77 103.87 969.59 103.87Q968.04 103.87 966.52 104.46Q965 105.06 963.82 106.28Q962.63 107.5 962.04 109.42Q961.67 110.46 961.49 112.12Q961.3 113.79 961.3 116.75V132.88ZM1005.04 132.88 1004.44 126.74V109.87Q1004.44 106.31 1002.3 104.5Q1000.15 102.69 996.3 102.69Q993.34 102.69 990.5 103.83Q987.65 104.98 985.28 107.35L980.69 101.95Q984.24 98.62 988.24 97.17Q992.23 95.73 996.97 95.73Q1004.37 95.73 1008.48 99.47Q1012.58 103.21 1012.58 109.87V132.88ZM993.71 133.55Q989.64 133.55 986.5 132.07Q983.35 130.59 981.62 127.92Q979.88 125.26 979.88 121.71Q979.88 118.67 981.17 116.45Q982.47 114.23 984.54 112.97Q986.31 111.86 988.68 111.38Q991.05 110.9 993.64 110.9H1005.11V117.04H994.82Q993.49 117.04 992.16 117.3Q990.83 117.56 989.79 118.23Q989.05 118.82 988.57 119.71Q988.09 120.6 988.09 121.78Q988.09 124.15 989.9 125.52Q991.72 126.89 994.75 126.89Q997.41 126.89 999.6 125.7Q1001.78 124.52 1003.11 122.45Q1004.44 120.37 1004.44 117.78L1006.96 121.85Q1006.07 125.7 1004.15 128.33Q1002.22 130.96 999.56 132.25Q996.9 133.55 993.71 133.55ZM1019.91 132.88V96.4H1028.12V104.46L1026.64 104.83Q1027.61 101.65 1029.46 99.65Q1031.31 97.66 1033.79 96.69Q1036.26 95.73 1039 95.73Q1045.14 95.73 1048.59 99.25Q1052.03 102.76 1052.03 109.27V132.88H1043.81V112.31Q1043.81 107.42 1042.04 105.13Q1040.26 102.84 1036.56 102.84Q1033.82 102.84 1031.94 104.13Q1030.05 105.43 1029.09 108.16Q1028.12 110.9 1028.12 115.12V132.88ZM1071.86 133.55Q1067.94 133.55 1064.9 132.4Q1061.87 131.25 1059.8 129.48Q1057.72 127.7 1056.39 125.92L1062.02 121.04Q1063.42 123.33 1065.9 125.11Q1068.38 126.89 1071.93 126.89Q1074.89 126.89 1076.63 125.63Q1078.37 124.37 1078.37 122.52Q1078.37 120.89 1077.26 119.97Q1076.15 119.04 1074.37 118.38Q1072.6 117.71 1070.45 117.19Q1068.38 116.67 1066.23 115.9Q1064.09 115.12 1062.28 113.94Q1060.46 112.75 1059.35 110.9Q1058.24 109.05 1058.24 106.31Q1058.24 101.5 1061.94 98.62Q1065.64 95.73 1071.64 95.73Q1075.93 95.73 1079.48 97.43Q1083.03 99.14 1085.03 102.54L1079.92 106.46Q1078.44 104.24 1076.22 103.13Q1074 102.02 1071.41 102.02Q1069.05 102.02 1067.45 102.98Q1065.86 103.95 1065.86 105.5Q1065.86 106.68 1066.6 107.42Q1067.34 108.16 1068.9 108.76Q1070.45 109.35 1072.82 109.94Q1075.04 110.46 1077.41 111.2Q1079.78 111.94 1081.81 113.16Q1083.85 114.38 1085.14 116.41Q1086.44 118.45 1086.44 121.63Q1086.44 125.18 1084.62 127.88Q1082.81 130.59 1079.52 132.07Q1076.22 133.55 1071.86 133.55ZM1092.43 147.98V96.4H1100.57V106.54L1098.5 106.61Q1099.46 102.61 1101.35 100.25Q1103.23 97.88 1105.86 96.81Q1108.49 95.73 1111.45 95.73Q1116.33 95.73 1119.88 98.21Q1123.44 100.69 1125.4 104.98Q1127.36 109.27 1127.36 114.68Q1127.36 120.52 1125.21 124.78Q1123.07 129.03 1119.48 131.29Q1115.89 133.55 1111.45 133.55Q1108.34 133.55 1105.71 132.36Q1103.09 131.18 1101.27 128.81Q1099.46 126.44 1098.72 123.04L1100.57 122.67V147.98ZM1109.45 126.07Q1112.34 126.07 1114.52 124.67Q1116.7 123.26 1117.89 120.67Q1119.07 118.08 1119.07 114.68Q1119.07 111.27 1117.89 108.68Q1116.7 106.09 1114.52 104.69Q1112.34 103.28 1109.45 103.28Q1106.56 103.28 1104.38 104.69Q1102.2 106.09 1101.01 108.68Q1099.83 111.27 1099.83 114.68Q1099.83 118.08 1101.01 120.63Q1102.2 123.19 1104.38 124.63Q1106.56 126.07 1109.45 126.07ZM1133.35 132.88V96.4H1141.57V132.88ZM1132.98 90.4V81.3H1141.94V90.4ZM1157.33 133.55Q1153.78 133.55 1151.41 131.36Q1149.04 129.18 1149.04 124.37V81.3H1157.25V122.74Q1157.25 124.44 1158.03 125.22Q1158.81 126 1160.07 126Q1160.73 126 1161.44 125.85Q1162.14 125.7 1162.88 125.48V132.44Q1161.47 133.03 1159.99 133.29Q1158.51 133.55 1157.33 133.55ZM1183.6 133.55Q1179.01 133.55 1175.64 132.07Q1172.28 130.59 1170.13 127.92Q1167.98 125.26 1166.95 121.89Q1165.91 118.52 1165.91 114.9Q1165.91 111.27 1166.91 107.83Q1167.91 104.39 1169.98 101.65Q1172.05 98.91 1175.31 97.32Q1178.57 95.73 1183.01 95.73Q1187.22 95.73 1190.37 97.17Q1193.51 98.62 1195.59 101.17Q1197.66 103.72 1198.66 106.98Q1199.66 110.24 1199.66 113.94Q1199.66 114.45 1199.62 115.42Q1199.58 116.38 1199.43 117.34H1174.13Q1174.42 121.71 1177.09 124Q1179.75 126.29 1183.89 126.29Q1186.93 126.29 1189.44 125.33Q1191.96 124.37 1194.03 122.3L1198.55 127.77Q1196.25 129.85 1193.96 131.1Q1191.66 132.36 1189.18 132.95Q1186.71 133.55 1183.6 133.55ZM1191.59 113.2Q1191.74 112.6 1191.78 112.01Q1191.81 111.42 1191.81 110.83Q1191.81 109.2 1191.26 107.72Q1190.7 106.24 1189.59 105.09Q1188.48 103.95 1186.85 103.24Q1185.23 102.54 1183.15 102.54Q1180.27 102.54 1178.31 103.8Q1176.35 105.06 1175.27 107.02Q1174.2 108.98 1173.98 111.27H1194.25Z"/><path fill="#3a352d" d="M684.08 205.02 678.98 187.59H681.28L685.3 201.69L689.28 188.54H691.48L695.45 201.69L699.45 187.59H701.75L696.65 205.02H694.48L690.2 191.17H690.55L686.28 205.02ZM708.3 205.22Q706.58 205.22 705.21 204.41Q703.85 203.59 703.08 202.14Q702.3 200.69 702.3 198.84Q702.3 196.99 703.06 195.56Q703.83 194.12 705.19 193.31Q706.55 192.49 708.3 192.49Q710.05 192.49 711.39 193.31Q712.73 194.12 713.5 195.56Q714.28 196.99 714.28 198.84Q714.28 200.69 713.5 202.13Q712.73 203.57 711.38 204.39Q710.03 205.22 708.3 205.22ZM708.3 203.34Q709.48 203.34 710.34 202.78Q711.2 202.22 711.68 201.21Q712.15 200.19 712.15 198.84Q712.15 197.47 711.68 196.46Q711.2 195.44 710.34 194.89Q709.48 194.34 708.3 194.34Q707.1 194.34 706.23 194.91Q705.35 195.47 704.88 196.47Q704.4 197.47 704.4 198.84Q704.4 200.19 704.88 201.21Q705.35 202.22 706.23 202.78Q707.1 203.34 708.3 203.34ZM717.3 205.02V192.69H719.43V195.99L718.88 196.12Q719.05 195.02 719.71 194.21Q720.38 193.39 721.26 192.94Q722.15 192.49 723 192.49Q723.58 192.49 724.1 192.62Q724.63 192.74 725.18 193.04L724.13 194.94Q723.83 194.79 723.41 194.69Q723 194.59 722.63 194.59Q722.03 194.59 721.44 194.82Q720.85 195.04 720.38 195.52Q719.9 195.99 719.65 196.79Q719.55 197.14 719.49 197.71Q719.43 198.27 719.43 199.24V205.02ZM735.88 205.02 731.78 198.67 729.35 201.27V198.54L735.03 192.69H737.75L733.33 197.24L738.4 205.02ZM727.48 205.02V187.59H729.6V205.02ZM740.75 205.02V192.69H742.85V205.02ZM740.55 190.47V187.59H743.05V190.47ZM746.43 205.02V192.69H748.55V195.32L748.05 195.49Q748.4 194.54 749 193.88Q749.6 193.22 750.45 192.86Q751.3 192.49 752.33 192.49Q754.35 192.49 755.5 193.68Q756.65 194.87 756.65 197.19V205.02H754.53V197.97Q754.53 196.09 753.84 195.21Q753.15 194.32 751.75 194.32Q750.73 194.32 750.01 194.79Q749.3 195.27 748.93 196.28Q748.55 197.29 748.55 198.87V205.02ZM765.08 210.34Q762.43 210.34 760.88 209.37Q759.33 208.39 759.33 206.67Q759.33 206.54 759.34 206.34Q759.35 206.14 759.4 205.97L762.48 203.74L763.2 204.24L761.45 206.42Q761.43 206.52 761.43 206.59Q761.43 206.67 761.43 206.74Q761.43 207.74 762.48 208.23Q763.53 208.72 765.08 208.72Q766.45 208.72 767.35 208.33Q768.25 207.94 768.25 207.07Q768.25 206.57 767.96 206.26Q767.68 205.94 767.14 205.77Q766.6 205.59 765.88 205.47Q765.15 205.34 764.25 205.22Q763.13 205.04 762.06 204.72Q761 204.39 760.31 203.77Q759.63 203.14 759.63 202.12Q759.63 201.24 760.24 200.52Q760.85 199.79 761.85 199.32L763.2 200.19Q762.35 200.39 762 200.81Q761.65 201.22 761.65 201.79Q761.65 202.27 761.99 202.57Q762.33 202.87 762.96 203.03Q763.6 203.19 764.5 203.32Q765.7 203.49 766.75 203.69Q767.8 203.89 768.61 204.26Q769.43 204.62 769.88 205.23Q770.33 205.84 770.33 206.82Q770.33 208.52 768.93 209.43Q767.53 210.34 765.08 210.34ZM764.78 201.17Q763.35 201.17 762.25 200.62Q761.15 200.07 760.54 199.09Q759.93 198.12 759.93 196.87Q759.93 195.57 760.56 194.58Q761.2 193.59 762.29 193.04Q763.38 192.49 764.7 192.49Q766 192.49 767.08 193.04Q768.15 193.59 768.8 194.59Q769.45 195.59 769.45 196.94Q769.45 198.22 768.85 199.17Q768.25 200.12 767.2 200.64Q766.15 201.17 764.78 201.17ZM764.73 199.44Q765.98 199.44 766.66 198.68Q767.35 197.92 767.35 196.82Q767.35 195.64 766.62 194.92Q765.9 194.19 764.73 194.19Q763.53 194.19 762.78 194.93Q762.03 195.67 762.03 196.79Q762.03 197.92 762.75 198.68Q763.48 199.44 764.73 199.44ZM768.65 194.99 767.13 193.97 769.73 191.82 770.8 193.14ZM779.45 210.12V192.69H781.55V196.37L780.88 195.89Q781.2 194.82 781.84 194.06Q782.48 193.29 783.4 192.89Q784.33 192.49 785.5 192.49Q787.18 192.49 788.44 193.33Q789.7 194.17 790.4 195.61Q791.1 197.04 791.1 198.87Q791.1 200.79 790.35 202.23Q789.6 203.67 788.33 204.44Q787.05 205.22 785.5 205.22Q784.33 205.22 783.4 204.79Q782.48 204.37 781.85 203.62Q781.23 202.87 780.95 201.92L781.55 201.34V210.12ZM785.15 203.29Q786.28 203.29 787.14 202.73Q788 202.17 788.49 201.17Q788.98 200.17 788.98 198.87Q788.98 197.57 788.49 196.57Q788 195.57 787.14 195.01Q786.28 194.44 785.15 194.44Q784.03 194.44 783.18 195.01Q782.33 195.57 781.85 196.57Q781.38 197.57 781.38 198.87Q781.38 200.17 781.85 201.17Q782.33 202.17 783.18 202.73Q784.03 203.29 785.15 203.29ZM802.23 205.02 802.08 202.54V197.29Q802.08 195.87 801.29 195.09Q800.5 194.32 798.95 194.32Q797.95 194.32 797.08 194.73Q796.2 195.14 795.38 196.12L793.85 194.82Q794.88 193.62 796.2 193.06Q797.53 192.49 799.1 192.49Q801.53 192.49 802.85 193.74Q804.18 194.99 804.18 197.29V205.02ZM798.15 205.22Q796.75 205.22 795.71 204.73Q794.68 204.24 794.11 203.37Q793.55 202.49 793.55 201.34Q793.55 200.32 793.96 199.61Q794.38 198.89 795.03 198.49Q795.68 198.07 796.51 197.91Q797.35 197.74 798.28 197.74H802.28V199.34H798.58Q798.03 199.34 797.43 199.44Q796.83 199.54 796.38 199.87Q796.05 200.12 795.86 200.49Q795.68 200.87 795.68 201.37Q795.68 202.34 796.4 202.92Q797.12 203.49 798.35 203.49Q799.38 203.49 800.21 203.02Q801.05 202.54 801.56 201.71Q802.08 200.87 802.08 199.82L802.95 200.72Q802.8 202.04 802.15 203.07Q801.5 204.09 800.49 204.66Q799.48 205.22 798.15 205.22ZM807.62 210.12V192.69H809.73V196.37L809.05 195.89Q809.38 194.82 810.01 194.06Q810.65 193.29 811.58 192.89Q812.5 192.49 813.68 192.49Q815.35 192.49 816.61 193.33Q817.88 194.17 818.58 195.61Q819.28 197.04 819.28 198.87Q819.28 200.79 818.53 202.23Q817.78 203.67 816.5 204.44Q815.23 205.22 813.68 205.22Q812.5 205.22 811.58 204.79Q810.65 204.37 810.03 203.62Q809.4 202.87 809.12 201.92L809.73 201.34V210.12ZM813.33 203.29Q814.45 203.29 815.31 202.73Q816.18 202.17 816.66 201.17Q817.15 200.17 817.15 198.87Q817.15 197.57 816.66 196.57Q816.18 195.57 815.31 195.01Q814.45 194.44 813.33 194.44Q812.2 194.44 811.35 195.01Q810.5 195.57 810.03 196.57Q809.55 197.57 809.55 198.87Q809.55 200.17 810.03 201.17Q810.5 202.17 811.35 202.73Q812.2 203.29 813.33 203.29ZM827.5 205.22Q826.05 205.22 824.96 204.73Q823.88 204.24 823.16 203.37Q822.45 202.49 822.09 201.36Q821.73 200.22 821.73 198.94Q821.73 197.67 822.08 196.51Q822.43 195.34 823.11 194.44Q823.8 193.54 824.85 193.02Q825.9 192.49 827.3 192.49Q828.73 192.49 829.76 192.98Q830.8 193.47 831.46 194.32Q832.13 195.17 832.45 196.22Q832.78 197.27 832.78 198.39Q832.78 198.49 832.76 198.86Q832.75 199.22 832.7 199.49H823.83Q823.9 201.29 824.88 202.29Q825.85 203.29 827.53 203.29Q828.6 203.29 829.4 202.94Q830.2 202.59 830.9 201.82L832.38 203.12Q831.7 203.84 830.95 204.31Q830.2 204.77 829.36 204.99Q828.53 205.22 827.5 205.22ZM830.68 198.42Q830.73 198.22 830.74 198.02Q830.75 197.82 830.75 197.62Q830.75 197.02 830.54 196.42Q830.33 195.82 829.91 195.33Q829.5 194.84 828.86 194.56Q828.23 194.27 827.35 194.27Q826.28 194.27 825.5 194.77Q824.73 195.27 824.3 196.09Q823.88 196.92 823.8 197.92H831.38ZM835.8 205.02V192.69H837.93V195.99L837.38 196.12Q837.55 195.02 838.21 194.21Q838.88 193.39 839.76 192.94Q840.65 192.49 841.5 192.49Q842.08 192.49 842.6 192.62Q843.13 192.74 843.68 193.04L842.63 194.94Q842.33 194.79 841.91 194.69Q841.5 194.59 841.13 194.59Q840.53 194.59 839.94 194.82Q839.35 195.04 838.88 195.52Q838.4 195.99 838.15 196.79Q838.05 197.14 837.99 197.71Q837.93 198.27 837.93 199.24V205.02ZM860.58 205.02 860.43 202.54V197.29Q860.43 195.87 859.64 195.09Q858.85 194.32 857.3 194.32Q856.3 194.32 855.43 194.73Q854.55 195.14 853.73 196.12L852.2 194.82Q853.23 193.62 854.55 193.06Q855.88 192.49 857.45 192.49Q859.88 192.49 861.2 193.74Q862.53 194.99 862.53 197.29V205.02ZM856.5 205.22Q855.1 205.22 854.06 204.73Q853.03 204.24 852.46 203.37Q851.9 202.49 851.9 201.34Q851.9 200.32 852.31 199.61Q852.73 198.89 853.38 198.49Q854.03 198.07 854.86 197.91Q855.7 197.74 856.63 197.74H860.63V199.34H856.93Q856.38 199.34 855.78 199.44Q855.18 199.54 854.73 199.87Q854.4 200.12 854.21 200.49Q854.03 200.87 854.03 201.37Q854.03 202.34 854.75 202.92Q855.48 203.49 856.7 203.49Q857.73 203.49 858.56 203.02Q859.4 202.54 859.91 201.71Q860.43 200.87 860.43 199.82L861.3 200.72Q861.15 202.04 860.5 203.07Q859.85 204.09 858.84 204.66Q857.83 205.22 856.5 205.22ZM865.98 205.02V192.69H868.1V195.32L867.6 195.49Q867.95 194.54 868.55 193.88Q869.15 193.22 870 192.86Q870.85 192.49 871.88 192.49Q873.9 192.49 875.05 193.68Q876.2 194.87 876.2 197.19V205.02H874.08V197.97Q874.08 196.09 873.39 195.21Q872.7 194.32 871.3 194.32Q870.28 194.32 869.56 194.79Q868.85 195.27 868.48 196.28Q868.1 197.29 868.1 198.87V205.02ZM884.68 205.22Q883 205.22 881.74 204.38Q880.48 203.54 879.78 202.09Q879.08 200.64 879.08 198.84Q879.08 196.89 879.83 195.47Q880.58 194.04 881.85 193.27Q883.13 192.49 884.68 192.49Q885.85 192.49 886.78 192.96Q887.7 193.42 888.34 194.21Q888.98 194.99 889.23 195.97L888.63 196.37V187.59H890.73V205.02H888.63V201.34L889.33 201.57Q889 202.64 888.35 203.47Q887.7 204.29 886.78 204.76Q885.85 205.22 884.68 205.22ZM885.03 203.27Q886.15 203.27 887 202.71Q887.85 202.14 888.33 201.14Q888.8 200.14 888.8 198.84Q888.8 197.54 888.33 196.54Q887.85 195.54 887 194.98Q886.15 194.42 885.03 194.42Q883.9 194.42 883.04 194.98Q882.18 195.54 881.69 196.54Q881.2 197.54 881.2 198.84Q881.2 200.14 881.69 201.14Q882.18 202.14 883.04 202.71Q883.9 203.27 885.03 203.27ZM906.03 205.22Q904.58 205.22 903.49 204.73Q902.4 204.24 901.69 203.37Q900.98 202.49 900.61 201.36Q900.25 200.22 900.25 198.94Q900.25 197.67 900.6 196.51Q900.95 195.34 901.64 194.44Q902.33 193.54 903.38 193.02Q904.43 192.49 905.83 192.49Q907.25 192.49 908.29 192.98Q909.33 193.47 909.99 194.32Q910.65 195.17 910.98 196.22Q911.3 197.27 911.3 198.39Q911.3 198.49 911.29 198.86Q911.28 199.22 911.23 199.49H902.35Q902.43 201.29 903.4 202.29Q904.38 203.29 906.05 203.29Q907.13 203.29 907.93 202.94Q908.73 202.59 909.43 201.82L910.9 203.12Q910.23 203.84 909.48 204.31Q908.73 204.77 907.89 204.99Q907.05 205.22 906.03 205.22ZM909.2 198.42Q909.25 198.22 909.26 198.02Q909.28 197.82 909.28 197.62Q909.28 197.02 909.06 196.42Q908.85 195.82 908.44 195.33Q908.03 194.84 907.39 194.56Q906.75 194.27 905.88 194.27Q904.8 194.27 904.03 194.77Q903.25 195.27 902.83 196.09Q902.4 196.92 902.33 197.92H909.9ZM912.93 205.02 917.35 198.82 912.93 192.69H915.53L918.75 197.37L922.03 192.69H924.58L920.13 198.82L924.58 205.02H921.98L918.75 200.29L915.48 205.02ZM927.05 210.12V192.69H929.15V196.37L928.48 195.89Q928.8 194.82 929.44 194.06Q930.08 193.29 931 192.89Q931.93 192.49 933.1 192.49Q934.78 192.49 936.04 193.33Q937.3 194.17 938 195.61Q938.7 197.04 938.7 198.87Q938.7 200.79 937.95 202.23Q937.2 203.67 935.93 204.44Q934.65 205.22 933.1 205.22Q931.93 205.22 931 204.79Q930.08 204.37 929.45 203.62Q928.83 202.87 928.55 201.92L929.15 201.34V210.12ZM932.75 203.29Q933.88 203.29 934.74 202.73Q935.6 202.17 936.09 201.17Q936.58 200.17 936.58 198.87Q936.58 197.57 936.09 196.57Q935.6 195.57 934.74 195.01Q933.88 194.44 932.75 194.44Q931.63 194.44 930.78 195.01Q929.93 195.57 929.45 196.57Q928.98 197.57 928.98 198.87Q928.98 200.17 929.45 201.17Q929.93 202.17 930.78 202.73Q931.63 203.29 932.75 203.29ZM946.93 205.22Q945.48 205.22 944.39 204.73Q943.3 204.24 942.59 203.37Q941.88 202.49 941.51 201.36Q941.15 200.22 941.15 198.94Q941.15 197.67 941.5 196.51Q941.85 195.34 942.54 194.44Q943.23 193.54 944.28 193.02Q945.33 192.49 946.73 192.49Q948.15 192.49 949.19 192.98Q950.23 193.47 950.89 194.32Q951.55 195.17 951.88 196.22Q952.2 197.27 952.2 198.39Q952.2 198.49 952.19 198.86Q952.18 199.22 952.13 199.49H943.25Q943.33 201.29 944.3 202.29Q945.28 203.29 946.95 203.29Q948.03 203.29 948.83 202.94Q949.63 202.59 950.33 201.82L951.8 203.12Q951.13 203.84 950.38 204.31Q949.63 204.77 948.79 204.99Q947.95 205.22 946.93 205.22ZM950.1 198.42Q950.15 198.22 950.16 198.02Q950.18 197.82 950.18 197.62Q950.18 197.02 949.96 196.42Q949.75 195.82 949.34 195.33Q948.93 194.84 948.29 194.56Q947.65 194.27 946.78 194.27Q945.7 194.27 944.93 194.77Q944.15 195.27 943.73 196.09Q943.3 196.92 943.23 197.92H950.8ZM955.23 205.02V192.69H957.35V195.99L956.8 196.12Q956.98 195.02 957.64 194.21Q958.3 193.39 959.19 192.94Q960.08 192.49 960.93 192.49Q961.5 192.49 962.03 192.62Q962.55 192.74 963.1 193.04L962.05 194.94Q961.75 194.79 961.34 194.69Q960.93 194.59 960.55 194.59Q959.95 194.59 959.36 194.82Q958.78 195.04 958.3 195.52Q957.83 195.99 957.58 196.79Q957.48 197.14 957.41 197.71Q957.35 198.27 957.35 199.24V205.02ZM965.38 205.02V192.69H967.48V205.02ZM965.18 190.47V187.59H967.68V190.47ZM971.05 205.02V192.69H973.18V195.87H972.75Q972.98 194.99 973.36 194.36Q973.75 193.72 974.28 193.31Q974.8 192.89 975.41 192.69Q976.03 192.49 976.7 192.49Q977.83 192.49 978.68 192.92Q979.53 193.34 980.08 194.21Q980.63 195.07 980.83 196.39L979.63 196.47Q980 195.19 980.58 194.31Q981.15 193.42 982.01 192.96Q982.88 192.49 984.08 192.49Q985.6 192.49 986.53 193.18Q987.45 193.87 987.88 195.01Q988.3 196.14 988.3 197.52V205.02H986.2V198.02Q986.2 196.87 985.94 196.04Q985.68 195.22 985.11 194.77Q984.55 194.32 983.6 194.32Q982.7 194.32 982.06 194.77Q981.43 195.22 981.09 196.13Q980.75 197.04 980.75 198.39V205.02H978.63V197.84Q978.63 196.07 977.98 195.19Q977.33 194.32 976.08 194.32Q975.18 194.32 974.53 194.78Q973.88 195.24 973.53 196.14Q973.18 197.04 973.18 198.39V205.02ZM996.95 205.22Q995.5 205.22 994.41 204.73Q993.33 204.24 992.61 203.37Q991.9 202.49 991.54 201.36Q991.18 200.22 991.18 198.94Q991.18 197.67 991.53 196.51Q991.88 195.34 992.56 194.44Q993.25 193.54 994.3 193.02Q995.35 192.49 996.75 192.49Q998.18 192.49 999.21 192.98Q1000.25 193.47 1000.91 194.32Q1001.58 195.17 1001.9 196.22Q1002.23 197.27 1002.23 198.39Q1002.23 198.49 1002.21 198.86Q1002.2 199.22 1002.15 199.49H993.28Q993.35 201.29 994.33 202.29Q995.3 203.29 996.98 203.29Q998.05 203.29 998.85 202.94Q999.65 202.59 1000.35 201.82L1001.83 203.12Q1001.15 203.84 1000.4 204.31Q999.65 204.77 998.81 204.99Q997.98 205.22 996.95 205.22ZM1000.12 198.42Q1000.18 198.22 1000.19 198.02Q1000.2 197.82 1000.2 197.62Q1000.2 197.02 999.99 196.42Q999.78 195.82 999.36 195.33Q998.95 194.84 998.31 194.56Q997.68 194.27 996.8 194.27Q995.73 194.27 994.95 194.77Q994.18 195.27 993.75 196.09Q993.33 196.92 993.25 197.92H1000.83ZM1005.25 205.02V192.69H1007.38V195.32L1006.88 195.49Q1007.23 194.54 1007.83 193.88Q1008.43 193.22 1009.28 192.86Q1010.12 192.49 1011.15 192.49Q1013.18 192.49 1014.33 193.68Q1015.48 194.87 1015.48 197.19V205.02H1013.35V197.97Q1013.35 196.09 1012.66 195.21Q1011.98 194.32 1010.58 194.32Q1009.55 194.32 1008.84 194.79Q1008.12 195.27 1007.75 196.28Q1007.38 197.29 1007.38 198.87V205.02ZM1023.03 205.22Q1022.15 205.22 1021.44 204.88Q1020.73 204.54 1020.33 203.79Q1019.93 203.04 1019.93 201.87V189.39L1022.08 188.19V201.32Q1022.08 202.34 1022.4 202.91Q1022.73 203.47 1023.58 203.47Q1023.83 203.47 1024.18 203.41Q1024.53 203.34 1024.93 203.24V204.89Q1024.45 205.07 1023.96 205.14Q1023.48 205.22 1023.03 205.22ZM1017.38 194.34V192.69H1024.93V194.34ZM1031.65 205.22Q1030.4 205.22 1029.4 204.84Q1028.4 204.47 1027.69 203.84Q1026.98 203.22 1026.55 202.52L1028.03 201.27Q1028.5 202.22 1029.44 202.83Q1030.38 203.44 1031.68 203.44Q1032.85 203.44 1033.55 202.94Q1034.25 202.44 1034.25 201.59Q1034.25 200.89 1033.83 200.49Q1033.4 200.09 1032.7 199.84Q1032 199.59 1031.18 199.39Q1030.48 199.22 1029.76 198.97Q1029.05 198.72 1028.48 198.34Q1027.9 197.97 1027.55 197.37Q1027.2 196.77 1027.2 195.89Q1027.2 194.37 1028.39 193.43Q1029.58 192.49 1031.5 192.49Q1032.9 192.49 1034.06 193.08Q1035.23 193.67 1035.88 194.84L1034.53 195.84Q1034.03 194.97 1033.21 194.58Q1032.4 194.19 1031.43 194.19Q1030.45 194.19 1029.8 194.59Q1029.15 194.99 1029.15 195.69Q1029.15 196.22 1029.45 196.54Q1029.75 196.87 1030.34 197.09Q1030.93 197.32 1031.78 197.52Q1032.55 197.69 1033.35 197.94Q1034.15 198.19 1034.83 198.59Q1035.5 198.99 1035.91 199.66Q1036.33 200.32 1036.33 201.37Q1036.33 202.52 1035.75 203.39Q1035.18 204.27 1034.12 204.74Q1033.08 205.22 1031.65 205.22ZM1051.25 205.22Q1049.53 205.22 1048.16 204.41Q1046.8 203.59 1046.03 202.14Q1045.25 200.69 1045.25 198.84Q1045.25 196.99 1046.01 195.56Q1046.78 194.12 1048.14 193.31Q1049.5 192.49 1051.25 192.49Q1053 192.49 1054.34 193.31Q1055.68 194.12 1056.45 195.56Q1057.23 196.99 1057.23 198.84Q1057.23 200.69 1056.45 202.13Q1055.68 203.57 1054.33 204.39Q1052.98 205.22 1051.25 205.22ZM1051.25 203.34Q1052.43 203.34 1053.29 202.78Q1054.15 202.22 1054.62 201.21Q1055.1 200.19 1055.1 198.84Q1055.1 197.47 1054.62 196.46Q1054.15 195.44 1053.29 194.89Q1052.43 194.34 1051.25 194.34Q1050.05 194.34 1049.18 194.91Q1048.3 195.47 1047.83 196.47Q1047.35 197.47 1047.35 198.84Q1047.35 200.19 1047.83 201.21Q1048.3 202.22 1049.18 202.78Q1050.05 203.34 1051.25 203.34ZM1060.25 205.02V192.69H1062.38V195.32L1061.88 195.49Q1062.23 194.54 1062.83 193.88Q1063.42 193.22 1064.28 192.86Q1065.12 192.49 1066.15 192.49Q1068.17 192.49 1069.33 193.68Q1070.48 194.87 1070.48 197.19V205.02H1068.35V197.97Q1068.35 196.09 1067.66 195.21Q1066.98 194.32 1065.58 194.32Q1064.55 194.32 1063.84 194.79Q1063.12 195.27 1062.75 196.28Q1062.38 197.29 1062.38 198.87V205.02ZM1081.42 205.02V194.34H1078.88V192.69H1081.45V191.09Q1081.45 189.69 1081.9 188.88Q1082.35 188.07 1083.14 187.73Q1083.92 187.39 1084.9 187.39Q1085.58 187.39 1086.1 187.52Q1086.62 187.64 1087.1 187.89L1086.4 189.49Q1086.12 189.34 1085.8 189.26Q1085.47 189.17 1085.12 189.17Q1084.33 189.17 1083.94 189.67Q1083.55 190.17 1083.55 191.09V192.69H1086.42V194.34H1083.55V205.02ZM1096.9 205.02 1096.75 202.54V197.29Q1096.75 195.87 1095.96 195.09Q1095.17 194.32 1093.62 194.32Q1092.62 194.32 1091.75 194.73Q1090.88 195.14 1090.05 196.12L1088.53 194.82Q1089.55 193.62 1090.88 193.06Q1092.2 192.49 1093.78 192.49Q1096.2 192.49 1097.53 193.74Q1098.85 194.99 1098.85 197.29V205.02ZM1092.83 205.22Q1091.42 205.22 1090.39 204.73Q1089.35 204.24 1088.79 203.37Q1088.22 202.49 1088.22 201.34Q1088.22 200.32 1088.64 199.61Q1089.05 198.89 1089.7 198.49Q1090.35 198.07 1091.19 197.91Q1092.03 197.74 1092.95 197.74H1096.95V199.34H1093.25Q1092.7 199.34 1092.1 199.44Q1091.5 199.54 1091.05 199.87Q1090.72 200.12 1090.54 200.49Q1090.35 200.87 1090.35 201.37Q1090.35 202.34 1091.07 202.92Q1091.8 203.49 1093.03 203.49Q1094.05 203.49 1094.89 203.02Q1095.72 202.54 1096.24 201.71Q1096.75 200.87 1096.75 199.82L1097.62 200.72Q1097.47 202.04 1096.82 203.07Q1096.17 204.09 1095.16 204.66Q1094.15 205.22 1092.83 205.22ZM1102.28 205.02V192.69H1104.38V205.02ZM1102.07 190.47V187.59H1104.57V190.47ZM1112.05 205.22Q1111.18 205.22 1110.46 204.88Q1109.75 204.54 1109.35 203.79Q1108.95 203.04 1108.95 201.87V189.39L1111.1 188.19V201.32Q1111.1 202.34 1111.43 202.91Q1111.75 203.47 1112.6 203.47Q1112.85 203.47 1113.2 203.41Q1113.55 203.34 1113.95 203.24V204.89Q1113.48 205.07 1112.99 205.14Q1112.5 205.22 1112.05 205.22ZM1106.4 194.34V192.69H1113.95V194.34ZM1116.6 205.02V187.59H1118.73V195.32L1118.2 195.52Q1118.55 194.57 1119.18 193.89Q1119.8 193.22 1120.65 192.86Q1121.5 192.49 1122.5 192.49Q1124.53 192.49 1125.68 193.68Q1126.83 194.87 1126.83 197.19V205.02H1124.7V197.97Q1124.7 196.09 1124.01 195.21Q1123.33 194.32 1121.93 194.32Q1120.4 194.32 1119.56 195.41Q1118.73 196.49 1118.73 198.87V205.02ZM1130.88 205.02V194.34H1128.33V192.69H1130.9V191.09Q1130.9 189.69 1131.35 188.88Q1131.8 188.07 1132.59 187.73Q1133.38 187.39 1134.35 187.39Q1135.03 187.39 1135.55 187.52Q1136.08 187.64 1136.55 187.89L1135.85 189.49Q1135.58 189.34 1135.25 189.26Q1134.92 189.17 1134.58 189.17Q1133.78 189.17 1133.39 189.67Q1133 190.17 1133 191.09V192.69H1135.88V194.34H1133V205.02ZM1142.4 205.22Q1141.08 205.22 1140.1 204.68Q1139.12 204.14 1138.61 203.09Q1138.1 202.04 1138.1 200.49V192.69H1140.2V199.74Q1140.2 200.97 1140.51 201.78Q1140.83 202.59 1141.45 202.98Q1142.08 203.37 1143 203.37Q1144.03 203.37 1144.74 202.88Q1145.45 202.39 1145.83 201.39Q1146.2 200.39 1146.2 198.82V192.69H1148.3V205.02H1146.2V202.39H1146.73Q1146.2 203.77 1145.05 204.49Q1143.9 205.22 1142.4 205.22ZM1154.4 205.22Q1153.28 205.22 1152.58 204.52Q1151.88 203.82 1151.88 202.29V187.59H1153.97V201.89Q1153.97 202.62 1154.28 202.94Q1154.58 203.27 1155.08 203.27Q1155.3 203.27 1155.57 203.22Q1155.85 203.17 1156.15 203.07V204.87Q1155.72 205.04 1155.25 205.13Q1154.78 205.22 1154.4 205.22ZM1158.55 205.02V192.69H1160.67V195.32L1160.17 195.49Q1160.53 194.54 1161.12 193.88Q1161.72 193.22 1162.57 192.86Q1163.42 192.49 1164.45 192.49Q1166.47 192.49 1167.62 193.68Q1168.78 194.87 1168.78 197.19V205.02H1166.65V197.97Q1166.65 196.09 1165.96 195.21Q1165.28 194.32 1163.88 194.32Q1162.85 194.32 1162.14 194.79Q1161.42 195.27 1161.05 196.28Q1160.67 197.29 1160.67 198.87V205.02ZM1177.43 205.22Q1175.98 205.22 1174.89 204.73Q1173.8 204.24 1173.09 203.37Q1172.38 202.49 1172.01 201.36Q1171.65 200.22 1171.65 198.94Q1171.65 197.67 1172 196.51Q1172.35 195.34 1173.04 194.44Q1173.73 193.54 1174.78 193.02Q1175.83 192.49 1177.23 192.49Q1178.65 192.49 1179.69 192.98Q1180.73 193.47 1181.39 194.32Q1182.05 195.17 1182.38 196.22Q1182.7 197.27 1182.7 198.39Q1182.7 198.49 1182.69 198.86Q1182.68 199.22 1182.63 199.49H1173.75Q1173.83 201.29 1174.8 202.29Q1175.78 203.29 1177.45 203.29Q1178.53 203.29 1179.33 202.94Q1180.13 202.59 1180.83 201.82L1182.3 203.12Q1181.63 203.84 1180.88 204.31Q1180.13 204.77 1179.29 204.99Q1178.45 205.22 1177.43 205.22ZM1180.6 198.42Q1180.65 198.22 1180.66 198.02Q1180.68 197.82 1180.68 197.62Q1180.68 197.02 1180.46 196.42Q1180.25 195.82 1179.84 195.33Q1179.43 194.84 1178.79 194.56Q1178.15 194.27 1177.28 194.27Q1176.2 194.27 1175.43 194.77Q1174.65 195.27 1174.23 196.09Q1173.8 196.92 1173.73 197.92H1181.3ZM1189.8 205.22Q1188.55 205.22 1187.55 204.84Q1186.55 204.47 1185.84 203.84Q1185.13 203.22 1184.7 202.52L1186.18 201.27Q1186.65 202.22 1187.59 202.83Q1188.53 203.44 1189.83 203.44Q1191 203.44 1191.7 202.94Q1192.4 202.44 1192.4 201.59Q1192.4 200.89 1191.98 200.49Q1191.55 200.09 1190.85 199.84Q1190.15 199.59 1189.33 199.39Q1188.63 199.22 1187.91 198.97Q1187.2 198.72 1186.63 198.34Q1186.05 197.97 1185.7 197.37Q1185.35 196.77 1185.35 195.89Q1185.35 194.37 1186.54 193.43Q1187.73 192.49 1189.65 192.49Q1191.05 192.49 1192.21 193.08Q1193.38 193.67 1194.03 194.84L1192.68 195.84Q1192.18 194.97 1191.36 194.58Q1190.55 194.19 1189.58 194.19Q1188.6 194.19 1187.95 194.59Q1187.3 194.99 1187.3 195.69Q1187.3 196.22 1187.6 196.54Q1187.9 196.87 1188.49 197.09Q1189.08 197.32 1189.93 197.52Q1190.7 197.69 1191.5 197.94Q1192.3 198.19 1192.98 198.59Q1193.65 198.99 1194.06 199.66Q1194.48 200.32 1194.48 201.37Q1194.48 202.52 1193.9 203.39Q1193.33 204.27 1192.28 204.74Q1191.23 205.22 1189.8 205.22ZM1201.55 205.22Q1200.3 205.22 1199.3 204.84Q1198.3 204.47 1197.59 203.84Q1196.88 203.22 1196.45 202.52L1197.93 201.27Q1198.4 202.22 1199.34 202.83Q1200.28 203.44 1201.58 203.44Q1202.75 203.44 1203.45 202.94Q1204.15 202.44 1204.15 201.59Q1204.15 200.89 1203.73 200.49Q1203.3 200.09 1202.6 199.84Q1201.9 199.59 1201.08 199.39Q1200.38 199.22 1199.66 198.97Q1198.95 198.72 1198.38 198.34Q1197.8 197.97 1197.45 197.37Q1197.1 196.77 1197.1 195.89Q1197.1 194.37 1198.29 193.43Q1199.48 192.49 1201.4 192.49Q1202.8 192.49 1203.96 193.08Q1205.13 193.67 1205.78 194.84L1204.43 195.84Q1203.93 194.97 1203.11 194.58Q1202.3 194.19 1201.33 194.19Q1200.35 194.19 1199.7 194.59Q1199.05 194.99 1199.05 195.69Q1199.05 196.22 1199.35 196.54Q1199.65 196.87 1200.24 197.09Q1200.83 197.32 1201.68 197.52Q1202.45 197.69 1203.25 197.94Q1204.05 198.19 1204.73 198.59Q1205.4 198.99 1205.81 199.66Q1206.23 200.32 1206.23 201.37Q1206.23 202.52 1205.65 203.39Q1205.08 204.27 1204.03 204.74Q1202.98 205.22 1201.55 205.22Z"/><path fill="#3a352d" d="M688.3 238.52 688.15 236.04V230.79Q688.15 229.37 687.36 228.59Q686.58 227.82 685.03 227.82Q684.03 227.82 683.15 228.23Q682.28 228.64 681.45 229.62L679.93 228.32Q680.95 227.12 682.28 226.56Q683.6 225.99 685.18 225.99Q687.6 225.99 688.93 227.24Q690.25 228.49 690.25 230.79V238.52ZM684.23 238.72Q682.83 238.72 681.79 238.23Q680.75 237.74 680.19 236.87Q679.63 235.99 679.63 234.84Q679.63 233.82 680.04 233.11Q680.45 232.39 681.1 231.99Q681.75 231.57 682.59 231.41Q683.43 231.24 684.35 231.24H688.35V232.84H684.65Q684.1 232.84 683.5 232.94Q682.9 233.04 682.45 233.37Q682.13 233.62 681.94 233.99Q681.75 234.37 681.75 234.87Q681.75 235.84 682.48 236.42Q683.2 236.99 684.43 236.99Q685.45 236.99 686.29 236.52Q687.13 236.04 687.64 235.21Q688.15 234.37 688.15 233.32L689.03 234.22Q688.88 235.54 688.23 236.57Q687.58 237.59 686.56 238.16Q685.55 238.72 684.23 238.72ZM698.83 238.72Q697.45 238.72 696.39 238.22Q695.33 237.72 694.6 236.83Q693.88 235.94 693.5 234.79Q693.13 233.64 693.13 232.34Q693.13 231.07 693.5 229.92Q693.88 228.77 694.6 227.88Q695.33 226.99 696.39 226.49Q697.45 225.99 698.83 225.99Q700.58 225.99 701.89 226.84Q703.2 227.69 703.83 229.44L701.95 230.17Q701.6 229.12 700.83 228.47Q700.05 227.82 698.83 227.82Q697.6 227.82 696.8 228.47Q696 229.12 695.61 230.14Q695.23 231.17 695.23 232.34Q695.23 233.52 695.61 234.56Q696 235.59 696.8 236.23Q697.6 236.87 698.83 236.87Q700.05 236.87 700.83 236.23Q701.6 235.59 701.95 234.52L703.83 235.24Q703.2 236.99 701.89 237.86Q700.58 238.72 698.83 238.72ZM706.65 238.52V226.19H708.78V229.49L708.23 229.62Q708.4 228.52 709.06 227.71Q709.73 226.89 710.61 226.44Q711.5 225.99 712.35 225.99Q712.93 225.99 713.45 226.12Q713.98 226.24 714.53 226.54L713.48 228.44Q713.18 228.29 712.76 228.19Q712.35 228.09 711.98 228.09Q711.38 228.09 710.79 228.32Q710.2 228.54 709.73 229.02Q709.25 229.49 709 230.29Q708.9 230.64 708.84 231.21Q708.78 231.77 708.78 232.74V238.52ZM721.55 238.72Q719.83 238.72 718.46 237.91Q717.1 237.09 716.33 235.64Q715.55 234.19 715.55 232.34Q715.55 230.49 716.31 229.06Q717.08 227.62 718.44 226.81Q719.8 225.99 721.55 225.99Q723.3 225.99 724.64 226.81Q725.98 227.62 726.75 229.06Q727.53 230.49 727.53 232.34Q727.53 234.19 726.75 235.63Q725.98 237.07 724.62 237.89Q723.28 238.72 721.55 238.72ZM721.55 236.84Q722.73 236.84 723.59 236.28Q724.45 235.72 724.93 234.71Q725.4 233.69 725.4 232.34Q725.4 230.97 724.93 229.96Q724.45 228.94 723.59 228.39Q722.73 227.84 721.55 227.84Q720.35 227.84 719.48 228.41Q718.6 228.97 718.12 229.97Q717.65 230.97 717.65 232.34Q717.65 233.69 718.12 234.71Q718.6 235.72 719.48 236.28Q720.35 236.84 721.55 236.84ZM734.63 238.72Q733.38 238.72 732.38 238.34Q731.38 237.97 730.66 237.34Q729.95 236.72 729.53 236.02L731 234.77Q731.48 235.72 732.41 236.33Q733.35 236.94 734.65 236.94Q735.83 236.94 736.53 236.44Q737.23 235.94 737.23 235.09Q737.23 234.39 736.8 233.99Q736.38 233.59 735.68 233.34Q734.98 233.09 734.15 232.89Q733.45 232.72 732.74 232.47Q732.03 232.22 731.45 231.84Q730.88 231.47 730.53 230.87Q730.18 230.27 730.18 229.39Q730.18 227.87 731.36 226.93Q732.55 225.99 734.48 225.99Q735.88 225.99 737.04 226.58Q738.2 227.17 738.85 228.34L737.5 229.34Q737 228.47 736.19 228.08Q735.38 227.69 734.4 227.69Q733.43 227.69 732.78 228.09Q732.13 228.49 732.13 229.19Q732.13 229.72 732.43 230.04Q732.73 230.37 733.31 230.59Q733.9 230.82 734.75 231.02Q735.53 231.19 736.33 231.44Q737.13 231.69 737.8 232.09Q738.48 232.49 738.89 233.16Q739.3 233.82 739.3 234.87Q739.3 236.02 738.73 236.89Q738.15 237.77 737.1 238.24Q736.05 238.72 734.63 238.72ZM746.38 238.72Q745.13 238.72 744.13 238.34Q743.13 237.97 742.41 237.34Q741.7 236.72 741.28 236.02L742.75 234.77Q743.23 235.72 744.16 236.33Q745.1 236.94 746.4 236.94Q747.58 236.94 748.28 236.44Q748.98 235.94 748.98 235.09Q748.98 234.39 748.55 233.99Q748.13 233.59 747.43 233.34Q746.73 233.09 745.9 232.89Q745.2 232.72 744.49 232.47Q743.78 232.22 743.2 231.84Q742.63 231.47 742.28 230.87Q741.93 230.27 741.93 229.39Q741.93 227.87 743.11 226.93Q744.3 225.99 746.23 225.99Q747.63 225.99 748.79 226.58Q749.95 227.17 750.6 228.34L749.25 229.34Q748.75 228.47 747.94 228.08Q747.13 227.69 746.15 227.69Q745.18 227.69 744.53 228.09Q743.88 228.49 743.88 229.19Q743.88 229.72 744.18 230.04Q744.48 230.37 745.06 230.59Q745.65 230.82 746.5 231.02Q747.28 231.19 748.08 231.44Q748.88 231.69 749.55 232.09Q750.23 232.49 750.64 233.16Q751.05 233.82 751.05 234.87Q751.05 236.02 750.48 236.89Q749.9 237.77 748.85 238.24Q747.8 238.72 746.38 238.72ZM760.55 238.52V226.19H762.68V229.37H762.25Q762.48 228.49 762.86 227.86Q763.25 227.22 763.78 226.81Q764.3 226.39 764.91 226.19Q765.53 225.99 766.2 225.99Q767.33 225.99 768.18 226.42Q769.03 226.84 769.58 227.71Q770.13 228.57 770.33 229.89L769.13 229.97Q769.5 228.69 770.08 227.81Q770.65 226.92 771.51 226.46Q772.38 225.99 773.58 225.99Q775.1 225.99 776.03 226.68Q776.95 227.37 777.38 228.51Q777.8 229.64 777.8 231.02V238.52H775.7V231.52Q775.7 230.37 775.44 229.54Q775.18 228.72 774.61 228.27Q774.05 227.82 773.1 227.82Q772.2 227.82 771.56 228.27Q770.93 228.72 770.59 229.63Q770.25 230.54 770.25 231.89V238.52H768.13V231.34Q768.13 229.57 767.48 228.69Q766.83 227.82 765.58 227.82Q764.68 227.82 764.03 228.28Q763.38 228.74 763.03 229.64Q762.68 230.54 762.68 231.89V238.52ZM781.23 238.52V226.19H783.33V238.52ZM781.03 223.97V221.09H783.53V223.97ZM786.9 238.52V226.19H789.03V228.82L788.53 228.99Q788.88 228.04 789.48 227.38Q790.08 226.72 790.93 226.36Q791.78 225.99 792.8 225.99Q794.83 225.99 795.98 227.18Q797.13 228.37 797.13 230.69V238.52H795V231.47Q795 229.59 794.31 228.71Q793.63 227.82 792.23 227.82Q791.2 227.82 790.49 228.29Q789.78 228.77 789.4 229.78Q789.03 230.79 789.03 232.37V238.52ZM805.6 238.72Q803.93 238.72 802.66 237.88Q801.4 237.04 800.7 235.59Q800 234.14 800 232.34Q800 230.39 800.75 228.97Q801.5 227.54 802.78 226.77Q804.05 225.99 805.6 225.99Q806.78 225.99 807.7 226.46Q808.63 226.92 809.26 227.71Q809.9 228.49 810.15 229.47L809.55 229.87V221.09H811.65V238.52H809.55V234.84L810.25 235.07Q809.93 236.14 809.28 236.97Q808.63 237.79 807.7 238.26Q806.78 238.72 805.6 238.72ZM805.95 236.77Q807.08 236.77 807.93 236.21Q808.78 235.64 809.25 234.64Q809.73 233.64 809.73 232.34Q809.73 231.04 809.25 230.04Q808.78 229.04 807.93 228.48Q807.08 227.92 805.95 227.92Q804.83 227.92 803.96 228.48Q803.1 229.04 802.61 230.04Q802.13 231.04 802.13 232.34Q802.13 233.64 802.61 234.64Q803.1 235.64 803.96 236.21Q804.83 236.77 805.95 236.77ZM819.33 238.72Q818.08 238.72 817.08 238.34Q816.08 237.97 815.36 237.34Q814.65 236.72 814.23 236.02L815.7 234.77Q816.18 235.72 817.11 236.33Q818.05 236.94 819.35 236.94Q820.53 236.94 821.23 236.44Q821.93 235.94 821.93 235.09Q821.93 234.39 821.5 233.99Q821.08 233.59 820.38 233.34Q819.68 233.09 818.85 232.89Q818.15 232.72 817.44 232.47Q816.73 232.22 816.15 231.84Q815.58 231.47 815.23 230.87Q814.88 230.27 814.88 229.39Q814.88 227.87 816.06 226.93Q817.25 225.99 819.18 225.99Q820.58 225.99 821.74 226.58Q822.9 227.17 823.55 228.34L822.2 229.34Q821.7 228.47 820.89 228.08Q820.08 227.69 819.1 227.69Q818.12 227.69 817.48 228.09Q816.83 228.49 816.83 229.19Q816.83 229.72 817.12 230.04Q817.43 230.37 818.01 230.59Q818.6 230.82 819.45 231.02Q820.23 231.19 821.03 231.44Q821.83 231.69 822.5 232.09Q823.18 232.49 823.59 233.16Q824 233.82 824 234.87Q824 236.02 823.42 236.89Q822.85 237.77 821.8 238.24Q820.75 238.72 819.33 238.72ZM826.95 238.52V235.62H829.45V238.52Z"/><path fill="#5f584d" d="M684.68 294.36H684.24V292.6Q681.72 292.2 680 291.02L681.38 289.7Q682.46 290.96 684.24 291.66V285.6Q683.59 285.27 683.08 284.99Q682.58 284.7 682.07 284.29Q681.56 283.89 681.24 283.47Q680.91 283.05 680.7 282.49Q680.5 281.92 680.5 281.3Q680.49 279.83 681.53 278.93Q682.58 278.03 684.24 277.8V276.02H684.68V277.76Q685.44 277.7 686.32 277.8V276.02H686.76V277.88Q689 278.29 690.48 279.44L689.08 280.76Q688.18 279.63 686.76 278.96V284.4Q687.49 284.74 688.04 285.04Q688.6 285.34 689.18 285.78Q689.76 286.21 690.13 286.67Q690.5 287.12 690.73 287.72Q690.97 288.32 690.96 289Q690.97 290.65 689.8 291.59Q688.63 292.52 686.76 292.68V294.36H686.32V292.72Q685.49 292.72 684.68 292.66ZM684.24 283.22V278.32Q682.99 278.37 682.28 278.97Q681.56 279.56 681.62 280.6Q681.66 281.4 682.34 282.01Q683.01 282.62 684.24 283.22ZM686.32 284.18V278.76Q685.36 278.39 684.68 278.34V283.46Q684.98 283.6 685.56 283.85Q686.13 284.09 686.32 284.18ZM686.32 292.14V286.54Q686.06 286.42 685.5 286.18Q684.94 285.94 684.68 285.8V291.8Q685.45 292.04 686.32 292.14ZM686.76 286.76V292.14Q688.19 292.12 689.03 291.53Q689.86 290.94 689.8 289.76Q689.76 289.25 689.52 288.81Q689.28 288.38 688.84 288.01Q688.41 287.65 687.92 287.36Q687.43 287.07 686.76 286.76Z"/><path fill="#1a1712" d="M701.95 298.04H699.39V282.14H701.81V283.84Q702.37 282.95 703.33 282.44Q704.29 281.92 705.35 281.92Q706.76 281.92 707.87 282.71Q708.98 283.5 709.55 284.75Q710.12 286 710.11 287.44Q710.09 288.51 709.77 289.39Q709.45 290.27 708.94 290.87Q708.43 291.47 707.75 291.89Q707.07 292.31 706.34 292.5Q705.62 292.7 704.86 292.72Q703.18 292.72 701.95 291.7ZM704.99 292.2Q705.86 292.19 706.48 291.66Q707.09 291.13 707.37 290.32Q707.65 289.51 707.65 288.52Q707.65 287.76 707.49 287Q707.34 286.23 707.03 285.53Q706.72 284.83 706.3 284.3Q705.87 283.76 705.29 283.44Q704.71 283.12 704.05 283.12Q702.68 283.12 701.95 284.38V289.26Q702.01 290.62 702.93 291.42Q703.84 292.22 704.99 292.2ZM712.37 297.98Q711.19 297.91 710.54 297.46L711.44 295.9Q712.65 296.65 713.29 296.76Q714.13 296.93 714.76 296.56Q715.38 296.19 715.73 295.34L716.88 292.52H715.6L711.13 282.14H713.86L717.58 290.86L719.91 285.08Q720.3 284.07 720.44 283.43Q720.58 282.79 720.52 282.14H721.76Q721.3 282.96 720.42 285.12L716.21 295.4Q715.84 296.34 715.21 296.94Q714.58 297.54 713.89 297.76Q713.19 297.99 712.37 297.98ZM726.75 292.72Q726.11 292.73 725.67 292.61Q725.24 292.49 724.98 292.28Q724.72 292.07 724.58 291.67Q724.44 291.27 724.4 290.85Q724.36 290.44 724.36 289.78V282.14H722.78V281.82H724.36V279.6H726.9V281.82H728.81V282.14H726.9V289.64Q726.9 290.9 726.99 291.29Q727.19 292.02 727.91 292.02Q728.68 292.02 729.4 291.54L729.49 291.72Q729 292.17 728.27 292.44Q727.54 292.72 726.75 292.72ZM733.84 292.52H731.29V277.64H733.86V283.74Q734.72 282.95 735.9 282.45Q737.08 281.94 738.29 281.94Q739.17 281.94 739.74 282.18Q740.3 282.41 740.62 282.94Q740.93 283.46 741.05 284.14Q741.17 284.82 741.17 285.86V292.52H738.63V286.02Q738.63 285.39 738.6 284.95Q738.56 284.5 738.45 284.11Q738.34 283.72 738.16 283.49Q737.97 283.25 737.66 283.12Q737.36 282.98 736.94 282.98Q736.22 282.98 735.35 283.4Q734.47 283.82 733.86 284.42ZM749.08 292.72Q747.55 292.72 746.26 292.07Q744.97 291.42 744.18 290.18Q743.39 288.94 743.39 287.34Q743.39 286.13 743.85 285.11Q744.31 284.09 745.09 283.41Q745.87 282.73 746.91 282.34Q747.95 281.96 749.11 281.96Q750.66 281.96 751.95 282.61Q753.24 283.25 754.03 284.5Q754.83 285.74 754.83 287.34Q754.83 288.94 754.03 290.18Q753.24 291.42 751.94 292.07Q750.64 292.72 749.08 292.72ZM749.95 292.04Q751.06 292.04 751.73 291.14Q752.4 290.24 752.4 288.72Q752.4 287.25 751.85 285.83Q751.3 284.4 750.35 283.49Q749.4 282.58 748.33 282.58Q747.15 282.58 746.47 283.46Q745.79 284.35 745.79 285.76Q745.79 287.23 746.38 288.69Q746.97 290.16 747.95 291.1Q748.93 292.04 749.95 292.04ZM759.57 292.52H757.02V282.14H759.44V283.9Q760.3 283.04 761.53 282.49Q762.76 281.94 764.03 281.94Q764.9 281.94 765.47 282.18Q766.04 282.41 766.35 282.94Q766.66 283.46 766.78 284.14Q766.91 284.82 766.91 285.86V292.52H764.37V286.02Q764.37 285.39 764.33 284.95Q764.29 284.5 764.18 284.11Q764.07 283.72 763.89 283.49Q763.7 283.25 763.4 283.12Q763.09 282.98 762.67 282.98Q761.95 282.98 761.08 283.4Q760.21 283.82 759.59 284.42ZM780.4 292.72Q777.76 292.63 775.77 291.42L777.45 289.92Q778.16 290.8 779.22 291.42Q780.28 292.03 781.22 292.12Q782.27 292.21 782.92 291.81Q783.58 291.41 783.58 290.76Q783.58 290.21 783.17 289.78Q782.77 289.35 782.12 289.05Q781.48 288.76 780.7 288.49Q779.92 288.22 779.14 287.91Q778.36 287.59 777.72 287.19Q777.07 286.8 776.67 286.17Q776.26 285.54 776.26 284.74Q776.26 284.05 776.59 283.51Q776.92 282.97 777.47 282.63Q778.02 282.3 778.71 282.12Q779.41 281.94 780.18 281.94Q782.73 281.97 784.45 283.26L783.06 284.64Q782.4 283.76 781.37 283.17Q780.33 282.59 779.45 282.54Q778.56 282.49 777.96 282.92Q777.36 283.35 777.43 284.04Q777.49 284.46 777.93 284.81Q778.37 285.17 779.03 285.44Q779.69 285.7 780.47 285.97Q781.25 286.24 782.02 286.57Q782.79 286.9 783.43 287.31Q784.06 287.71 784.46 288.32Q784.86 288.93 784.86 289.68Q784.86 291.2 783.61 292Q782.36 292.79 780.4 292.72ZM788.18 280.96Q787.54 280.96 787.12 280.55Q786.69 280.14 786.69 279.52Q786.69 278.9 787.12 278.48Q787.54 278.06 788.18 278.06Q788.78 278.06 789.19 278.48Q789.59 278.9 789.59 279.52Q789.59 280.14 789.19 280.55Q788.78 280.96 788.18 280.96ZM789.44 292.52H786.9V282.14H789.44ZM795.07 292.52H792.52V282.14H794.94V283.88Q796.72 281.94 799.03 281.94Q800.2 281.94 800.8 282.41Q801.41 282.87 801.64 283.86Q803.43 281.94 805.72 281.94Q806.56 281.94 807.12 282.18Q807.68 282.42 807.98 282.94Q808.28 283.46 808.4 284.15Q808.53 284.83 808.53 285.86V292.52H805.97V286.02Q805.97 284.42 805.7 283.73Q805.43 283.04 804.6 282.98Q803.33 282.88 801.75 284.42Q801.81 285.06 801.81 285.86V292.52H799.27V286.02Q799.27 284.42 799.01 283.73Q798.74 283.04 797.92 282.98Q796.67 282.88 795.09 284.42ZM815.05 292.72Q812.4 292.63 810.42 291.42L812.1 289.92Q812.8 290.8 813.86 291.42Q814.92 292.03 815.87 292.12Q816.92 292.21 817.57 291.81Q818.22 291.41 818.22 290.76Q818.22 290.21 817.82 289.78Q817.41 289.35 816.77 289.05Q816.12 288.76 815.35 288.49Q814.57 288.22 813.79 287.91Q813.01 287.59 812.36 287.19Q811.72 286.8 811.32 286.17Q810.91 285.54 810.91 284.74Q810.91 284.05 811.24 283.51Q811.56 282.97 812.12 282.63Q812.67 282.3 813.36 282.12Q814.05 281.94 814.83 281.94Q817.37 281.97 819.1 283.26L817.71 284.64Q817.05 283.76 816.02 283.17Q814.98 282.59 814.1 282.54Q813.2 282.49 812.61 282.92Q812.01 283.35 812.08 284.04Q812.14 284.46 812.58 284.81Q813.02 285.17 813.68 285.44Q814.34 285.7 815.12 285.97Q815.9 286.24 816.67 286.57Q817.44 286.9 818.08 287.31Q818.71 287.71 819.11 288.32Q819.5 288.93 819.5 289.68Q819.5 291.2 818.26 292Q817.01 292.79 815.05 292.72ZM822.98 295.04H822.1Q825.9 287.27 829.68 278.14H830.56Q826.37 286.61 822.98 295.04ZM841.5 288.78V289.54L833.08 285.28L841.5 281.02V281.78L834.51 285.28ZM846.38 292.52H843.83V282.14H842.37V281.82H843.83V280.86Q843.83 280.04 844.08 279.42Q844.33 278.8 844.79 278.41Q845.26 278.03 845.85 277.82Q846.45 277.62 847.19 277.58Q848.17 277.52 849.24 277.78Q850.31 278.04 851.19 278.52L849.76 280.28Q849.6 280.14 849.13 279.63Q848.66 279.13 848.37 278.84Q848.07 278.56 847.67 278.31Q847.27 278.06 846.99 278.1Q846.83 278.12 846.72 278.21Q846.6 278.3 846.53 278.48Q846.47 278.66 846.43 278.85Q846.4 279.03 846.39 279.33Q846.38 279.63 846.38 279.85Q846.38 280.08 846.39 280.45Q846.4 280.82 846.4 281.04V281.82H848.29V282.14H846.4ZM851.19 280.96Q850.56 280.96 850.13 280.55Q849.71 280.14 849.71 279.52Q849.71 278.9 850.13 278.48Q850.56 278.06 851.19 278.06Q851.8 278.06 852.2 278.48Q852.61 278.9 852.61 279.52Q852.61 280.14 852.2 280.55Q851.8 280.96 851.19 280.96ZM852.45 292.52H849.91V282.14H852.45ZM858.09 292.52H855.54V277.9L858.09 277.58ZM865.97 292.72Q864.41 292.65 863.14 291.99Q861.88 291.34 861.11 290.12Q860.35 288.91 860.35 287.34Q860.35 285.74 861.14 284.5Q861.93 283.25 863.22 282.6Q864.51 281.95 866.08 281.94Q867.85 281.93 869.23 282.91Q870.6 283.88 870.66 285.16Q870.68 285.83 870.3 286.08Q869.93 286.34 868.89 286.34H863.18V286.26L867.09 286.08Q867.86 286.06 868.09 285.82Q868.31 285.58 868.29 285.04Q868.26 284.31 867.78 283.7Q867.31 283.09 866.63 282.79Q865.95 282.5 865.29 282.56Q864.13 282.64 863.43 283.51Q862.73 284.38 862.73 285.86Q862.73 287.24 863.31 288.57Q863.9 289.9 864.92 290.82Q865.94 291.74 867.11 291.9Q868.34 292.12 869.4 291.62Q870.46 291.12 871.17 290.2L871.41 290.32Q869.59 292.87 865.97 292.72ZM882.33 285.28 873.91 289.54V288.78L880.91 285.28L873.91 281.78V281.02ZM885.97 290.54Q886.43 290.54 886.76 290.87Q887.09 291.2 887.08 291.66Q887.09 292.12 886.76 292.45Q886.43 292.78 885.97 292.78Q885.51 292.78 885.18 292.45Q884.85 292.12 884.85 291.66Q884.85 291.2 885.18 290.87Q885.52 290.54 885.97 290.54ZM892 298.04H889.44V282.14H891.86V283.84Q892.42 282.95 893.38 282.44Q894.34 281.92 895.4 281.92Q896.81 281.92 897.92 282.71Q899.03 283.5 899.6 284.75Q900.17 286 900.16 287.44Q900.14 288.51 899.82 289.39Q899.5 290.27 898.99 290.87Q898.48 291.47 897.8 291.89Q897.12 292.31 896.39 292.5Q895.67 292.7 894.9 292.72Q893.22 292.72 892 291.7ZM895.04 292.2Q895.91 292.19 896.53 291.66Q897.14 291.13 897.42 290.32Q897.7 289.51 897.7 288.52Q897.7 287.76 897.54 287Q897.38 286.23 897.08 285.53Q896.77 284.83 896.34 284.3Q895.92 283.76 895.34 283.44Q894.76 283.12 894.1 283.12Q892.73 283.12 892 284.38V289.26Q892.06 290.62 892.98 291.42Q893.89 292.22 895.04 292.2ZM902.42 297.98Q901.24 297.91 900.59 297.46L901.49 295.9Q902.7 296.65 903.34 296.76Q904.18 296.93 904.81 296.56Q905.43 296.19 905.78 295.34L906.93 292.52H905.65L901.18 282.14H903.91L907.63 290.86L909.96 285.08Q910.35 284.07 910.49 283.43Q910.63 282.79 910.57 282.14H911.81Q911.35 282.96 910.47 285.12L906.26 295.4Q905.89 296.34 905.26 296.94Q904.63 297.54 903.94 297.76Q903.24 297.99 902.42 297.98Z"/><path fill="#5f584d" d="M687.8 435.36H679.6V435.05L686.19 424.74H685.72Q681.78 424.74 679.56 425.3L679.86 424.42H687.92V424.74L681.39 435.05H681.95Q686.09 435.02 688.1 434.5ZM692.38 435.36H691.54Q692.03 434.5 692.71 432.72L695.89 424.42H697.09L701.14 435.36H699.56L697.96 431.05H693.67L693.02 432.75Q692.62 433.81 692.49 434.36Q692.36 434.91 692.38 435.36ZM695.87 425.34 693.79 430.74H697.85ZM706.8 435.36H705.31V424.42H706.8ZM712.52 435.36H711.75Q711.98 434.47 711.98 433.44V424.42H712.99L719.71 433.04V426.34Q719.71 425.4 719.45 424.42H720.25Q720.02 425.38 720.02 426.34V435.36H719.71L712.28 425.9V433.44Q712.28 434.34 712.52 435.36ZM734.16 435.36H731.42V424.42H734.68Q736.05 424.42 737.18 424.83Q738.32 425.24 739.1 425.95Q739.87 426.67 740.29 427.65Q740.72 428.64 740.72 429.79Q740.71 430.96 740.31 431.95Q739.9 432.95 739.11 433.72Q738.32 434.48 737.05 434.92Q735.78 435.36 734.16 435.36ZM732.9 424.75V435.05H734.19Q735.46 435.04 736.43 434.69Q737.39 434.35 737.99 433.73Q738.59 433.1 738.9 432.28Q739.2 431.45 739.22 430.42Q739.25 427.9 737.77 426.34Q736.29 424.78 733.88 424.75ZM744.45 435.36H743.61Q744.1 434.5 744.78 432.72L747.96 424.42H749.16L753.21 435.36H751.64L750.03 431.05H745.74L745.1 432.75Q744.69 433.81 744.56 434.36Q744.43 434.91 744.45 435.36ZM747.95 425.34 745.86 430.74H749.92ZM758 435.36H757.22Q757.46 434.47 757.46 433.44V424.42H758.47L765.18 433.04V426.34Q765.18 425.4 764.93 424.42H765.73Q765.5 425.38 765.5 426.34V435.36H765.18L757.76 425.9V433.44Q757.76 434.34 758 435.36ZM770.51 435.36H769.67Q770.16 434.5 770.84 432.72L774.02 424.42H775.22L779.27 435.36H777.69L776.09 431.05H771.8L771.15 432.75Q770.75 433.81 770.62 434.36Q770.49 434.91 770.51 435.36ZM774 425.34 771.91 430.74H775.98ZM791.45 435.36H789.96V424.42H791.45V429.57H796.85V424.42H798.34V435.36H796.85V429.9H791.45ZM803.17 435.36H802.33Q802.82 434.5 803.5 432.72L806.68 424.42H807.88L811.93 435.36H810.36L808.76 431.05H804.46L803.82 432.75Q803.42 433.81 803.28 434.36Q803.15 434.91 803.17 435.36ZM806.67 425.34 804.58 430.74H808.65ZM817.52 435.36H816.03V424.42H820.06Q822.24 424.42 823.29 425.55Q823.92 426.2 823.92 427.19Q823.94 428.49 822.95 429.3Q822.27 429.83 821.1 430.04Q822.98 433.43 824.42 435.36H822.56L819.54 430.12H817.52ZM817.52 424.74V429.81H819.74Q821.2 429.81 821.9 429.11Q822.17 428.86 822.32 428.44Q822.47 428.03 822.47 427.57Q822.47 426.57 821.92 425.97Q821.48 425.38 820.72 425.06Q819.97 424.74 818.97 424.74ZM830.34 435.36H828.86V424.42H832.79Q833.85 424.42 834.66 424.7Q835.48 424.98 835.95 425.47Q836.69 426.13 836.69 427.19Q836.71 428.57 835.59 429.42Q834.53 430.18 832.65 430.18H830.34ZM830.34 424.74V429.87H832.45Q833.86 429.87 834.61 429.19Q835.21 428.61 835.21 427.57Q835.21 426.44 834.55 425.76Q833.6 424.74 831.74 424.74ZM847.97 435.36H840.82V424.42H847.97L848.23 425.24Q847.68 425.02 847.06 424.94Q846.75 424.89 846.44 424.86Q846.13 424.82 845.73 424.8Q845.34 424.78 845.11 424.77Q844.87 424.75 844.37 424.75Q843.88 424.74 843.73 424.74Q843.58 424.74 842.98 424.74Q842.38 424.74 842.3 424.74V429.57Q842.46 429.57 842.97 429.57Q843.49 429.57 843.78 429.57Q844.07 429.57 844.51 429.56Q844.95 429.54 845.28 429.49Q845.78 429.43 846.02 429.3V430.17Q845.78 430.04 845.28 429.98Q844.95 429.93 844.51 429.91Q844.07 429.9 843.79 429.9Q843.5 429.9 842.98 429.9Q842.46 429.9 842.3 429.9V435.05Q842.43 435.05 842.92 435.05Q843.41 435.05 843.57 435.05Q843.74 435.05 844.17 435.04Q844.61 435.04 844.82 435.03Q845.03 435.02 845.41 435.01Q845.78 434.99 846.03 434.97Q846.28 434.94 846.58 434.91Q846.89 434.88 847.16 434.83Q847.76 434.74 848.23 434.56ZM854.21 435.36H852.72V424.42H856.74Q858.93 424.42 859.98 425.55Q860.61 426.2 860.61 427.19Q860.63 428.49 859.64 429.3Q858.96 429.83 857.79 430.04Q859.67 433.43 861.11 435.36H859.25L856.23 430.12H854.21ZM854.21 424.74V429.81H856.43Q857.89 429.81 858.59 429.11Q858.86 428.86 859.01 428.44Q859.16 428.03 859.16 427.57Q859.16 426.57 858.6 425.97Q858.16 425.38 857.41 425.06Q856.66 424.74 855.66 424.74ZM879.47 437.21H878.91Q881.74 431.32 884.55 424.62H885.11Q881.98 431.1 879.47 437.21ZM909.62 435.36H902.46V424.42H909.62L909.88 425.24Q909.33 425.02 908.7 424.94Q908.4 424.89 908.08 424.86Q907.77 424.82 907.38 424.8Q906.99 424.78 906.76 424.77Q906.52 424.75 906.02 424.75Q905.52 424.74 905.37 424.74Q905.22 424.74 904.63 424.74Q904.03 424.74 903.95 424.74V429.57Q904.1 429.57 904.62 429.57Q905.14 429.57 905.43 429.57Q905.72 429.57 906.15 429.56Q906.59 429.54 906.93 429.49Q907.43 429.43 907.67 429.3V430.17Q907.43 430.04 906.93 429.98Q906.59 429.93 906.16 429.91Q905.72 429.9 905.43 429.9Q905.14 429.9 904.63 429.9Q904.11 429.9 903.95 429.9V435.05Q904.07 435.05 904.57 435.05Q905.06 435.05 905.22 435.05Q905.39 435.05 905.82 435.04Q906.26 435.04 906.47 435.03Q906.68 435.02 907.06 435.01Q907.43 434.99 907.68 434.97Q907.93 434.94 908.23 434.91Q908.54 434.88 908.81 434.83Q909.41 434.74 909.88 434.56ZM914.59 435.36H913.74Q914.25 434.82 915.15 433.67L917.58 430.35L913.81 424.42H915.57L918.55 429.13L920.79 426.09Q921.41 425.25 921.57 424.93Q921.71 424.64 921.73 424.42H922.59Q922.11 424.92 921.16 426.13L918.75 429.42L922.5 435.36H920.77L917.76 430.67L915.52 433.71Q915.23 434.11 915.08 434.31Q914.93 434.52 914.77 434.83Q914.6 435.15 914.59 435.36ZM928.24 435.36H926.75V424.42H930.69Q931.75 424.42 932.56 424.7Q933.37 424.98 933.85 425.47Q934.58 426.13 934.58 427.19Q934.61 428.57 933.48 429.42Q932.43 430.18 930.55 430.18H928.24ZM928.24 424.74V429.87H930.35Q931.76 429.87 932.51 429.19Q933.11 428.61 933.11 427.57Q933.11 426.44 932.45 425.76Q931.5 424.74 929.63 424.74ZM945.87 435.36H938.71V424.42H945.87L946.12 425.24Q945.57 425.02 944.95 424.94Q944.64 424.89 944.33 424.86Q944.02 424.82 943.63 424.8Q943.24 424.78 943 424.77Q942.77 424.75 942.27 424.75Q941.77 424.74 941.62 424.74Q941.47 424.74 940.88 424.74Q940.28 424.74 940.2 424.74V429.57Q940.35 429.57 940.87 429.57Q941.39 429.57 941.67 429.57Q941.96 429.57 942.4 429.56Q942.84 429.54 943.18 429.49Q943.68 429.43 943.92 429.3V430.17Q943.68 430.04 943.18 429.98Q942.84 429.93 942.41 429.91Q941.97 429.9 941.68 429.9Q941.39 429.9 940.88 429.9Q940.36 429.9 940.2 429.9V435.05Q940.32 435.05 940.81 435.05Q941.3 435.05 941.47 435.05Q941.63 435.05 942.07 435.04Q942.51 435.04 942.72 435.03Q942.93 435.02 943.3 435.01Q943.68 434.99 943.93 434.97Q944.18 434.94 944.48 434.91Q944.78 434.88 945.05 434.83Q945.66 434.74 946.12 434.56ZM952.11 435.36H950.62V424.42H954.64Q956.82 424.42 957.88 425.55Q958.51 426.2 958.51 427.19Q958.53 428.49 957.53 429.3Q956.86 429.83 955.69 430.04Q957.57 433.43 959.01 435.36H957.15L954.13 430.12H952.11ZM952.11 424.74V429.81H954.33Q955.78 429.81 956.49 429.11Q956.76 428.86 956.91 428.44Q957.06 428.03 957.06 427.57Q957.06 426.57 956.5 425.97Q956.06 425.38 955.31 425.06Q954.55 424.74 953.56 424.74ZM965 435.36H963.52V424.42H965ZM970.73 435.36H969.95Q970.19 434.47 970.19 433.44V424.42H971.83L976.79 434.11L981.36 424.42H982.85V435.36H981.36V425.21L976.59 435.36H975.75L970.49 425.05V433.44Q970.49 434.34 970.73 435.36ZM994.95 435.36H987.79V424.42H994.95L995.2 425.24Q994.65 425.02 994.03 424.94Q993.72 424.89 993.41 424.86Q993.1 424.82 992.71 424.8Q992.32 424.78 992.08 424.77Q991.85 424.75 991.35 424.75Q990.85 424.74 990.7 424.74Q990.55 424.74 989.96 424.74Q989.36 424.74 989.28 424.74V429.57Q989.43 429.57 989.95 429.57Q990.46 429.57 990.75 429.57Q991.04 429.57 991.48 429.56Q991.92 429.54 992.26 429.49Q992.76 429.43 993 429.3V430.17Q992.76 430.04 992.26 429.98Q991.92 429.93 991.49 429.91Q991.05 429.9 990.76 429.9Q990.47 429.9 989.96 429.9Q989.44 429.9 989.28 429.9V435.05Q989.4 435.05 989.89 435.05Q990.38 435.05 990.55 435.05Q990.71 435.05 991.15 435.04Q991.58 435.04 991.8 435.03Q992.01 435.02 992.38 435.01Q992.76 434.99 993.01 434.97Q993.25 434.94 993.56 434.91Q993.86 434.88 994.13 434.83Q994.73 434.74 995.2 434.56ZM1000.39 435.36H999.61Q999.84 434.47 999.84 433.44V424.42H1000.86L1007.57 433.04V426.34Q1007.57 425.4 1007.32 424.42H1008.11Q1007.89 425.38 1007.89 426.34V435.36H1007.57L1000.14 425.9V433.44Q1000.14 434.34 1000.39 435.36ZM1017.35 435.36H1015.88V424.71Q1014.4 424.73 1013.59 424.84Q1012.78 424.94 1011.82 425.3L1012.12 424.42H1021.16L1021.46 425.3Q1020.47 424.94 1019.67 424.84Q1018.86 424.73 1017.35 424.71ZM1024.35 435.36H1023.51Q1024 434.5 1024.68 432.72L1027.86 424.42H1029.06L1033.11 435.36H1031.54L1029.94 431.05H1025.64L1025 432.75Q1024.6 433.81 1024.46 434.36Q1024.33 434.91 1024.35 435.36ZM1027.85 425.34 1025.76 430.74H1029.83ZM1044.25 435.36H1037.21V424.42H1038.7V435.05Q1038.8 435.05 1039.3 435.05Q1039.81 435.05 1039.95 435.05Q1040.08 435.05 1040.52 435.04Q1040.96 435.04 1041.15 435.03Q1041.34 435.02 1041.72 435Q1042.09 434.99 1042.33 434.96Q1042.57 434.94 1042.88 434.9Q1043.18 434.86 1043.45 434.82Q1044 434.75 1044.5 434.56Z"/><path fill="#5f584d" d="M74.72 435.36H73.23V424.42H77.16Q78.23 424.42 79.04 424.7Q79.85 424.98 80.33 425.47Q81.06 426.13 81.06 427.19Q81.08 428.57 79.96 429.42Q78.91 430.18 77.02 430.18H74.72ZM74.72 424.74V429.87H76.83Q78.23 429.87 78.99 429.19Q79.59 428.61 79.59 427.57Q79.59 426.44 78.93 425.76Q77.98 424.74 76.11 424.74ZM86.68 435.36H85.19V424.42H89.21Q91.39 424.42 92.45 425.55Q93.08 426.2 93.08 427.19Q93.1 428.49 92.1 429.3Q91.43 429.83 90.26 430.04Q92.14 433.43 93.58 435.36H91.71L88.7 430.12H86.68ZM86.68 424.74V429.81H88.89Q90.35 429.81 91.06 429.11Q91.33 428.86 91.48 428.44Q91.63 428.03 91.63 427.57Q91.63 426.57 91.07 425.97Q90.63 425.38 89.88 425.06Q89.12 424.74 88.13 424.74ZM99.57 435.36H98.08V424.42H99.57ZM105.3 435.36H104.52Q104.76 434.47 104.76 433.44V424.42H105.77L112.48 433.04V426.34Q112.48 425.4 112.23 424.42H113.02Q112.8 425.38 112.8 426.34V435.36H112.48L105.06 425.9V433.44Q105.06 434.34 105.3 435.36ZM123.1 435.51Q121.81 435.51 120.7 435.07Q119.59 434.64 118.81 433.9Q118.03 433.15 117.59 432.11Q117.15 431.07 117.14 429.88Q117.13 428.91 117.44 428.02Q117.75 427.14 118.31 426.47Q118.87 425.8 119.66 425.33Q120.45 424.86 121.37 424.67Q122.81 424.21 124.33 424.42Q125.85 424.64 126.97 425.44L125.98 426.43Q124.94 425.34 123.56 424.95Q122.18 424.56 120.84 425.04Q119.75 425.46 119.19 426.49Q118.63 427.52 118.63 428.91Q118.63 430.19 119.01 431.31Q119.39 432.43 120.06 433.24Q120.73 434.06 121.7 434.52Q122.67 434.99 123.8 434.99Q124.87 434.99 125.85 434.57Q126.83 434.14 127.46 433.41L127.64 433.59Q126.86 434.53 125.67 435.02Q124.48 435.51 123.1 435.51ZM133.29 435.36H131.81V424.42H133.29ZM139.82 435.36H138.33V424.42H142.26Q143.33 424.42 144.14 424.7Q144.95 424.98 145.43 425.47Q146.16 426.13 146.16 427.19Q146.18 428.57 145.06 429.42Q144.01 430.18 142.12 430.18H139.82ZM139.82 424.74V429.87H141.93Q143.33 429.87 144.09 429.19Q144.69 428.61 144.69 427.57Q144.69 426.44 144.03 425.76Q143.08 424.74 141.21 424.74ZM157.32 435.36H150.29V424.42H151.78V435.05Q151.88 435.05 152.38 435.05Q152.88 435.05 153.02 435.05Q153.16 435.05 153.6 435.04Q154.04 435.04 154.23 435.03Q154.42 435.02 154.79 435Q155.17 434.99 155.4 434.96Q155.64 434.94 155.95 434.9Q156.26 434.86 156.53 434.82Q157.07 434.75 157.58 434.56ZM168.95 435.36H161.79V424.42H168.95L169.21 425.24Q168.66 425.02 168.03 424.94Q167.73 424.89 167.41 424.86Q167.1 424.82 166.71 424.8Q166.32 424.78 166.09 424.77Q165.85 424.75 165.35 424.75Q164.85 424.74 164.7 424.74Q164.55 424.74 163.96 424.74Q163.36 424.74 163.28 424.74V429.57Q163.43 429.57 163.95 429.57Q164.47 429.57 164.76 429.57Q165.05 429.57 165.48 429.56Q165.92 429.54 166.26 429.49Q166.76 429.43 167 429.3V430.17Q166.76 430.04 166.26 429.98Q165.92 429.93 165.49 429.91Q165.05 429.9 164.76 429.9Q164.47 429.9 163.96 429.9Q163.44 429.9 163.28 429.9V435.05Q163.4 435.05 163.9 435.05Q164.39 435.05 164.55 435.05Q164.72 435.05 165.15 435.04Q165.59 435.04 165.8 435.03Q166.01 435.02 166.39 435.01Q166.76 434.99 167.01 434.97Q167.26 434.94 167.56 434.91Q167.86 434.88 168.14 434.83Q168.74 434.74 169.21 434.56ZM187.67 437.21H187.11Q189.94 431.32 192.75 424.62H193.31Q190.18 431.1 187.67 437.21ZM214.76 435.51Q213.61 435.51 212.44 435.17Q211.28 434.84 210.39 434.23L211.44 433.24Q212.18 434.14 213.42 434.65Q214.67 435.15 215.77 435.07Q216.68 434.99 217.24 434.51Q217.8 434.03 217.75 433.29Q217.72 432.85 217.46 432.47Q217.2 432.09 216.8 431.79Q216.39 431.5 215.87 431.23Q215.35 430.97 214.79 430.71Q214.22 430.45 213.66 430.19Q213.09 429.93 212.59 429.6Q212.08 429.27 211.7 428.9Q211.31 428.53 211.08 428.03Q210.85 427.53 210.85 426.94Q210.85 426.09 211.32 425.47Q211.8 424.86 212.57 424.57Q213.34 424.28 214.32 424.28Q215.34 424.28 216.37 424.58Q217.4 424.88 218.22 425.44L217.22 426.43Q216.57 425.64 215.53 425.15Q214.49 424.66 213.57 424.68Q212.69 424.7 212.16 425.16Q211.62 425.61 211.67 426.42Q211.69 426.82 211.94 427.18Q212.19 427.53 212.59 427.81Q213 428.09 213.52 428.35Q214.05 428.61 214.62 428.87Q215.19 429.13 215.76 429.4Q216.33 429.67 216.84 430.01Q217.36 430.34 217.75 430.72Q218.15 431.1 218.38 431.62Q218.61 432.13 218.61 432.72Q218.62 433.43 218.31 433.99Q218 434.54 217.46 434.87Q216.92 435.19 216.24 435.36Q215.56 435.52 214.76 435.51ZM224.36 435.36H222.87V424.42H224.36ZM230.08 435.36H229.31Q229.54 434.47 229.54 433.44V424.42H231.18L236.15 434.11L240.72 424.42H242.2V435.36H240.72V425.21L235.95 435.36H235.11L229.84 425.05V433.44Q229.84 434.34 230.08 435.36ZM251.57 435.51Q249.49 435.57 248.35 434.44Q247.2 433.31 247.2 430.99V424.42H248.69V431.19Q248.69 433.18 249.54 434.21Q250.38 435.23 252 435.13Q253.43 435.07 254.26 434.02Q255.09 432.96 255.09 430.98V426.34Q255.09 425.44 254.85 424.42H255.63Q255.41 425.38 255.41 426.34V430.99Q255.41 433.15 254.42 434.31Q253.44 435.48 251.57 435.51ZM267.45 435.36H260.42V424.42H261.9V435.05Q262 435.05 262.51 435.05Q263.01 435.05 263.15 435.05Q263.29 435.05 263.73 435.04Q264.17 435.04 264.36 435.03Q264.55 435.02 264.92 435Q265.29 434.99 265.53 434.96Q265.77 434.94 266.08 434.9Q266.38 434.86 266.66 434.82Q267.2 434.75 267.7 434.56ZM272.07 435.36H271.22Q271.71 434.5 272.4 432.72L275.57 424.42H276.78L280.83 435.36H279.25L277.65 431.05H273.36L272.71 432.75Q272.31 433.81 272.18 434.36Q272.04 434.91 272.07 435.36ZM275.56 425.34 273.47 430.74H277.54ZM288.48 435.36H287.01V424.71Q285.53 424.73 284.72 424.84Q283.91 424.94 282.95 425.3L283.25 424.42H292.29L292.59 425.3Q291.6 424.94 290.8 424.84Q289.99 424.73 288.48 424.71ZM303.51 435.36H296.36V424.42H303.51L303.77 425.24Q303.22 425.02 302.6 424.94Q302.29 424.89 301.98 424.86Q301.67 424.82 301.27 424.8Q300.88 424.78 300.65 424.77Q300.41 424.75 299.92 424.75Q299.42 424.74 299.27 424.74Q299.12 424.74 298.52 424.74Q297.92 424.74 297.84 424.74V429.57Q298 429.57 298.51 429.57Q299.03 429.57 299.32 429.57Q299.61 429.57 300.05 429.56Q300.49 429.54 300.82 429.49Q301.32 429.43 301.56 429.3V430.17Q301.32 430.04 300.82 429.98Q300.49 429.93 300.05 429.91Q299.62 429.9 299.33 429.9Q299.04 429.9 298.52 429.9Q298 429.9 297.84 429.9V435.05Q297.97 435.05 298.46 435.05Q298.95 435.05 299.11 435.05Q299.28 435.05 299.71 435.04Q300.15 435.04 300.36 435.03Q300.58 435.02 300.95 435.01Q301.32 434.99 301.57 434.97Q301.82 434.94 302.12 434.91Q302.43 434.88 302.7 434.83Q303.3 434.74 303.77 434.56ZM322.23 437.21H321.68Q324.5 431.32 327.32 424.62H327.87Q324.74 431.1 322.23 437.21ZM346.71 435.36H345.23V424.42H349.25Q351.43 424.42 352.48 425.55Q353.11 426.2 353.11 427.19Q353.14 428.49 352.14 429.3Q351.47 429.83 350.29 430.04Q352.18 433.43 353.61 435.36H351.75L348.73 430.12H346.71ZM346.71 424.74V429.81H348.93Q350.39 429.81 351.09 429.11Q351.36 428.86 351.51 428.44Q351.66 428.03 351.66 427.57Q351.66 426.57 351.11 425.97Q350.67 425.38 349.91 425.06Q349.16 424.74 348.16 424.74ZM365.2 435.36H358.05V424.42H365.2L365.46 425.24Q364.91 425.02 364.29 424.94Q363.98 424.89 363.67 424.86Q363.36 424.82 362.97 424.8Q362.57 424.78 362.34 424.77Q362.11 424.75 361.61 424.75Q361.11 424.74 360.96 424.74Q360.81 424.74 360.21 424.74Q359.62 424.74 359.54 424.74V429.57Q359.69 429.57 360.21 429.57Q360.72 429.57 361.01 429.57Q361.3 429.57 361.74 429.56Q362.18 429.54 362.52 429.49Q363.01 429.43 363.26 429.3V430.17Q363.01 430.04 362.52 429.98Q362.18 429.93 361.74 429.91Q361.31 429.9 361.02 429.9Q360.73 429.9 360.21 429.9Q359.7 429.9 359.54 429.9V435.05Q359.66 435.05 360.15 435.05Q360.64 435.05 360.81 435.05Q360.97 435.05 361.41 435.04Q361.84 435.04 362.05 435.03Q362.27 435.02 362.64 435.01Q363.01 434.99 363.26 434.97Q363.51 434.94 363.82 434.91Q364.12 434.88 364.39 434.83Q364.99 434.74 365.46 434.56ZM374.86 435.51Q373.57 435.51 372.46 435.07Q371.35 434.64 370.57 433.9Q369.79 433.15 369.35 432.11Q368.91 431.07 368.9 429.88Q368.89 428.91 369.2 428.02Q369.52 427.14 370.08 426.47Q370.64 425.8 371.42 425.33Q372.21 424.86 373.13 424.67Q374.57 424.21 376.09 424.42Q377.61 424.64 378.73 425.44L377.74 426.43Q376.7 425.34 375.32 424.95Q373.94 424.56 372.61 425.04Q371.51 425.46 370.95 426.49Q370.39 427.52 370.39 428.91Q370.4 430.19 370.78 431.31Q371.16 432.43 371.83 433.24Q372.5 434.06 373.46 434.52Q374.43 434.99 375.57 434.99Q376.64 434.99 377.61 434.57Q378.59 434.14 379.22 433.41L379.4 433.59Q378.62 434.53 377.43 435.02Q376.24 435.51 374.86 435.51ZM388.63 435.51Q387.41 435.51 386.33 435.06Q385.25 434.62 384.49 433.86Q383.73 433.1 383.29 432.07Q382.85 431.03 382.85 429.88Q382.85 428.74 383.3 427.71Q383.75 426.67 384.52 425.92Q385.28 425.16 386.36 424.72Q387.44 424.28 388.63 424.28Q389.85 424.28 390.92 424.72Q392 425.16 392.76 425.92Q393.52 426.68 393.96 427.72Q394.4 428.75 394.4 429.9Q394.4 431.05 393.96 432.08Q393.51 433.11 392.74 433.87Q391.97 434.62 390.9 435.06Q389.82 435.51 388.63 435.51ZM389.36 434.99Q390.26 434.95 390.95 434.61Q391.64 434.27 392.06 433.7Q392.48 433.14 392.7 432.43Q392.92 431.72 392.91 430.91Q392.9 429.92 392.65 428.97Q392.4 428.01 391.94 427.22Q391.47 426.43 390.86 425.85Q390.24 425.27 389.45 424.98Q388.67 424.7 387.83 424.78Q387.14 424.82 386.57 425.05Q386 425.29 385.59 425.67Q385.18 426.04 384.9 426.55Q384.61 427.06 384.47 427.65Q384.34 428.25 384.34 428.91Q384.35 430.12 384.73 431.26Q385.12 432.39 385.78 433.24Q386.44 434.09 387.38 434.57Q388.32 435.05 389.36 434.99ZM399.29 435.36H398.51Q398.74 434.47 398.74 433.44V424.42H399.75L406.47 433.04V426.34Q406.47 425.4 406.21 424.42H407.01Q406.79 425.38 406.79 426.34V435.36H406.47L399.04 425.9V433.44Q399.04 434.34 399.29 435.36ZM417.09 435.51Q415.8 435.51 414.69 435.07Q413.58 434.64 412.8 433.9Q412.02 433.15 411.58 432.11Q411.13 431.07 411.13 429.88Q411.12 428.91 411.43 428.02Q411.74 427.14 412.3 426.47Q412.86 425.8 413.65 425.33Q414.44 424.86 415.36 424.67Q416.8 424.21 418.31 424.42Q419.83 424.64 420.96 425.44L419.97 426.43Q418.93 425.34 417.55 424.95Q416.17 424.56 414.83 425.04Q413.73 425.46 413.17 426.49Q412.61 427.52 412.61 428.91Q412.62 430.19 413 431.31Q413.38 432.43 414.05 433.24Q414.72 434.06 415.69 434.52Q416.66 434.99 417.79 434.99Q418.86 434.99 419.84 434.57Q420.82 434.14 421.45 433.41L421.63 433.59Q420.85 434.53 419.66 435.02Q418.47 435.51 417.09 435.51ZM427.28 435.36H425.79V424.42H427.28ZM439.35 435.36H432.32V424.42H433.81V435.05Q433.91 435.05 434.41 435.05Q434.91 435.05 435.05 435.05Q435.19 435.05 435.63 435.04Q436.07 435.04 436.26 435.03Q436.45 435.02 436.82 435Q437.2 434.99 437.43 434.96Q437.67 434.94 437.98 434.9Q438.29 434.86 438.56 434.82Q439.1 434.75 439.61 434.56ZM450.98 435.36H443.82V424.42H450.98L451.23 425.24Q450.69 425.02 450.06 424.94Q449.76 424.89 449.44 424.86Q449.13 424.82 448.74 424.8Q448.35 424.78 448.11 424.77Q447.88 424.75 447.38 424.75Q446.88 424.74 446.73 424.74Q446.58 424.74 445.99 424.74Q445.39 424.74 445.31 424.74V429.57Q445.46 429.57 445.98 429.57Q446.5 429.57 446.79 429.57Q447.07 429.57 447.51 429.56Q447.95 429.54 448.29 429.49Q448.79 429.43 449.03 429.3V430.17Q448.79 430.04 448.29 429.98Q447.95 429.93 447.52 429.91Q447.08 429.9 446.79 429.9Q446.5 429.9 445.99 429.9Q445.47 429.9 445.31 429.9V435.05Q445.43 435.05 445.92 435.05Q446.42 435.05 446.58 435.05Q446.75 435.05 447.18 435.04Q447.62 435.04 447.83 435.03Q448.04 435.02 448.42 435.01Q448.79 434.99 449.04 434.97Q449.29 434.94 449.59 434.91Q449.89 434.88 450.17 434.83Q450.77 434.74 451.23 434.56ZM469.7 437.21H469.14Q471.97 431.32 474.78 424.62H475.34Q472.21 431.1 469.7 437.21ZM497.03 435.36H495.81L492.15 424.42H493.71L496.98 434.22L499.53 424.42H500.7L503.39 434.33L505.85 427.03Q506.23 425.92 506.36 425.39Q506.49 424.86 506.48 424.42H507.29Q507.07 424.84 506.96 425.07Q506.85 425.3 506.63 425.84Q506.41 426.38 506.18 427.08L503.34 435.36H502.16L499.53 425.79ZM512.83 435.36H511.35V424.42H512.83ZM522.23 435.36H520.77V424.71Q519.28 424.73 518.47 424.84Q517.66 424.94 516.7 425.3L517 424.42H526.05L526.35 425.3Q525.36 424.94 524.56 424.84Q523.75 424.73 522.23 424.71ZM530.8 435.36H530.03Q530.26 434.47 530.26 433.44V424.42H531.27L537.99 433.04V426.34Q537.99 425.4 537.73 424.42H538.53Q538.3 425.38 538.3 426.34V435.36H537.99L530.56 425.9V433.44Q530.56 434.34 530.8 435.36ZM550.55 435.36H543.4V424.42H550.55L550.81 425.24Q550.26 425.02 549.64 424.94Q549.33 424.89 549.02 424.86Q548.71 424.82 548.32 424.8Q547.92 424.78 547.69 424.77Q547.45 424.75 546.96 424.75Q546.46 424.74 546.31 424.74Q546.16 424.74 545.56 424.74Q544.96 424.74 544.88 424.74V429.57Q545.04 429.57 545.55 429.57Q546.07 429.57 546.36 429.57Q546.65 429.57 547.09 429.56Q547.53 429.54 547.86 429.49Q548.36 429.43 548.6 429.3V430.17Q548.36 430.04 547.86 429.98Q547.53 429.93 547.09 429.91Q546.66 429.9 546.37 429.9Q546.08 429.9 545.56 429.9Q545.04 429.9 544.88 429.9V435.05Q545.01 435.05 545.5 435.05Q545.99 435.05 546.15 435.05Q546.32 435.05 546.76 435.04Q547.19 435.04 547.4 435.03Q547.62 435.02 547.99 435.01Q548.36 434.99 548.61 434.97Q548.86 434.94 549.16 434.91Q549.47 434.88 549.74 434.83Q550.34 434.74 550.81 434.56ZM558.78 435.51Q557.63 435.51 556.47 435.17Q555.3 434.84 554.42 434.23L555.47 433.24Q556.2 434.14 557.45 434.65Q558.7 435.15 559.8 435.07Q560.7 434.99 561.26 434.51Q561.82 434.03 561.77 433.29Q561.74 432.85 561.49 432.47Q561.23 432.09 560.82 431.79Q560.42 431.5 559.9 431.23Q559.38 430.97 558.81 430.71Q558.25 430.45 557.68 430.19Q557.12 429.93 556.62 429.6Q556.11 429.27 555.72 428.9Q555.33 428.53 555.1 428.03Q554.87 427.53 554.87 426.94Q554.87 426.09 555.35 425.47Q555.82 424.86 556.6 424.57Q557.37 424.28 558.35 424.28Q559.36 424.28 560.39 424.58Q561.43 424.88 562.25 425.44L561.24 426.43Q560.59 425.64 559.55 425.15Q558.51 424.66 557.6 424.68Q556.72 424.7 556.18 425.16Q555.65 425.61 555.69 426.42Q555.71 426.82 555.96 427.18Q556.21 427.53 556.62 427.81Q557.03 428.09 557.55 428.35Q558.07 428.61 558.64 428.87Q559.22 429.13 559.79 429.4Q560.36 429.67 560.87 430.01Q561.38 430.34 561.78 430.72Q562.17 431.1 562.4 431.62Q562.64 432.13 562.64 432.72Q562.64 433.43 562.34 433.99Q562.03 434.54 561.49 434.87Q560.95 435.19 560.27 435.36Q559.58 435.52 558.78 435.51ZM570.62 435.51Q569.47 435.51 568.3 435.17Q567.14 434.84 566.25 434.23L567.3 433.24Q568.04 434.14 569.28 434.65Q570.53 435.15 571.64 435.07Q572.54 434.99 573.1 434.51Q573.66 434.03 573.61 433.29Q573.58 432.85 573.32 432.47Q573.06 432.09 572.66 431.79Q572.25 431.5 571.73 431.23Q571.21 430.97 570.65 430.71Q570.08 430.45 569.52 430.19Q568.95 429.93 568.45 429.6Q567.94 429.27 567.56 428.9Q567.17 428.53 566.94 428.03Q566.71 427.53 566.71 426.94Q566.71 426.09 567.18 425.47Q567.66 424.86 568.43 424.57Q569.2 424.28 570.18 424.28Q571.2 424.28 572.23 424.58Q573.26 424.88 574.08 425.44L573.08 426.43Q572.43 425.64 571.39 425.15Q570.35 424.66 569.43 424.68Q568.55 424.7 568.02 425.16Q567.48 425.61 567.53 426.42Q567.55 426.82 567.8 427.18Q568.05 427.53 568.45 427.81Q568.86 428.09 569.38 428.35Q569.91 428.61 570.48 428.87Q571.05 429.13 571.62 429.4Q572.19 429.67 572.7 430.01Q573.22 430.34 573.61 430.72Q574.01 431.1 574.24 431.62Q574.47 432.13 574.47 432.72Q574.48 433.43 574.17 433.99Q573.86 434.54 573.32 434.87Q572.78 435.19 572.1 435.36Q571.42 435.52 570.62 435.51Z"/></svg>
